<?xml version="1.0" encoding="UTF-8"?>
<svg version="1.1" xmlns="http://www.w3.org/2000/svg" width="128" height="128">
<path d="M0 0 C1.72615148 0.73450779 3.45409473 1.46481576 5.18359375 2.19140625 C6.93694631 2.97721154 8.68824318 3.76761903 10.4375 4.5625 C11.33404297 4.96146484 12.23058594 5.36042969 13.15429688 5.77148438 C14.43723633 6.3505957 14.43723633 6.3505957 15.74609375 6.94140625 C16.90129517 7.46263062 16.90129517 7.46263062 18.07983398 7.99438477 C20 9 20 9 22 11 C22.24867483 13.60543402 22.37638077 16.10095456 22.40625 18.7109375 C22.41765015 19.47548248 22.42905029 20.24002747 22.4407959 21.02774048 C22.45969891 22.64669252 22.47276513 24.26572156 22.48046875 25.88476562 C22.49987798 28.35944242 22.56189544 30.8307917 22.625 33.3046875 C22.63806123 34.87758443 22.64856173 36.45050513 22.65625 38.0234375 C22.6809436 38.76210052 22.70563721 39.50076355 22.7310791 40.2618103 C22.71289062 42.36474609 22.71289062 42.36474609 22 46 C19.26953125 48.35107422 19.26953125 48.35107422 16 50 C15.17048828 50.42249023 14.34097656 50.84498047 13.48632812 51.28027344 C10.82892178 52.44830606 8.16846959 53.60743352 5.5 54.75 C4.11361328 55.36681641 4.11361328 55.36681641 2.69921875 55.99609375 C1.34763672 56.57810547 1.34763672 56.57810547 -0.03125 57.171875 C-0.84142578 57.5234668 -1.65160156 57.87505859 -2.48632812 58.23730469 C-10.39403458 60.63665152 -16.62667981 56.93482916 -23.75 53.75 C-24.89855469 53.25886719 -26.04710937 52.76773438 -27.23046875 52.26171875 C-28.32488281 51.77832031 -29.41929688 51.29492188 -30.546875 50.796875 C-31.54557617 50.35698242 -32.54427734 49.91708984 -33.57324219 49.46386719 C-36.34681923 47.79079194 -37.08128318 47.0773386 -38 44 C-38.39963364 39.422012 -38.3716145 34.83922672 -38.37060547 30.24609375 C-38.37498622 28.00704299 -38.41134965 25.76995326 -38.44921875 23.53125 C-38.45508614 22.10417338 -38.45905605 20.67708744 -38.4609375 19.25 C-38.46915527 17.95578125 -38.47737305 16.6615625 -38.48583984 15.328125 C-37.90891971 11.3760771 -37.16170297 10.35770519 -34 8 C-30.07802023 5.72543543 -25.94272865 3.9264591 -21.8125 2.0625 C-20.71357422 1.53076172 -19.61464844 0.99902344 -18.48242188 0.45117188 C-11.14010945 -2.86315758 -7.1830454 -3.67923698 0 0 Z M-17.75 8.5 C-18.44738281 8.83386719 -19.14476562 9.16773438 -19.86328125 9.51171875 C-21.57884457 10.33424911 -23.28988053 11.16621041 -25 12 C-22.03465848 14.3667045 -19.04936859 16.11934829 -15.625 17.75 C-14.70976563 18.19859375 -13.79453125 18.6471875 -12.8515625 19.109375 C-7.00080813 20.9367339 -2.42231717 18.47805007 2.875 15.9375 C4.60363281 15.11572266 4.60363281 15.11572266 6.3671875 14.27734375 C7.23601562 13.85582031 8.10484375 13.43429688 9 13 C6.0031766 10.58981892 2.99429744 8.91085309 -0.5 7.3125 C-1.4384375 6.87550781 -2.376875 6.43851563 -3.34375 5.98828125 C-8.95177324 3.90176672 -12.74294966 6.04853301 -17.75 8.5 Z M-31 18 C-31 25.92 -31 33.84 -31 42 C-24.32451244 45.41360159 -18.05091082 48.35590844 -11 51 C-11 42.75 -11 34.5 -11 26 C-13.92875 24.68 -16.8575 23.36 -19.875 22 C-20.79651855 21.58234375 -21.71803711 21.1646875 -22.66748047 20.734375 C-23.75633545 20.24710938 -23.75633545 20.24710938 -24.8671875 19.75 C-25.61081543 19.41484375 -26.35444336 19.0796875 -27.12060547 18.734375 C-28.97417611 17.87868259 -28.97417611 17.87868259 -31 18 Z M8.8671875 19.75 C7.77833252 20.23726562 7.77833252 20.23726562 6.66748047 20.734375 C5.28520264 21.36085938 5.28520264 21.36085938 3.875 22 C0.94625 23.32 -1.9825 24.64 -5 26 C-5 34.25 -5 42.5 -5 51 C-2.2775 49.88625 -2.2775 49.88625 0.5 48.75 C1.5209375 48.33234375 2.541875 47.9146875 3.59375 47.484375 C7.46123066 45.79900499 11.22663241 43.88668379 15 42 C15 34.08 15 26.16 15 18 C12.53879159 18 11.11147615 18.73848962 8.8671875 19.75 Z " fill="#000000" transform="translate(72,37)"/>
<path d="M0 0 C2.0625 0.4375 2.0625 0.4375 4 1 C4.5534764 3.07553648 5 4.84365964 5 7 C6.0725 6.319375 7.145 5.63875 8.25 4.9375 C11.66157733 2.96528998 11.66157733 2.96528998 14.4375 3.25 C16 4 16 4 16.6875 5.8125 C17 8 17 8 15.875 9.5625 C13.68297409 11.2430532 11.40079543 12.63738638 9 14 C9.639375 14.268125 10.27875 14.53625 10.9375 14.8125 C13 16 13 16 14 19 C13.34 19.99 12.68 20.98 12 22 C5.80481527 21.58411954 0.73310689 20.39748106 -5 18 C-4.19444444 4.19444444 -4.19444444 4.19444444 0 0 Z " fill="#000000" transform="translate(13,79)"/>
<path d="M0 0 C6.13583124 0.05370531 11.38768414 1.65303155 17 4 C17.40214229 10.16618181 15.96818336 15.17745757 14 21 C11.625 21.625 11.625 21.625 9 22 C7 20 7 20 6.875 17.375 C6.91625 16.59125 6.9575 15.8075 7 15 C5.9275 15.680625 4.855 16.36125 3.75 17.0625 C0.33842267 19.03471002 0.33842267 19.03471002 -2.4375 18.75 C-2.953125 18.5025 -3.46875 18.255 -4 18 C-4.33 16.68 -4.66 15.36 -5 14 C-2.38485683 11.87961365 0.19637616 9.86908256 3 8 C1.68 7.34 0.36 6.68 -1 6 C-1.042721 4.33388095 -1.04063832 2.66617115 -1 1 C-0.67 0.67 -0.34 0.34 0 0 Z " fill="#000000" transform="translate(103,27)"/>
<path d="M0 0 C0.66 1.32 1.32 2.64 2 4 C0.36587557 5.70840281 -0.86906094 6.93453047 -3 8 C-1.865625 8.5775 -0.73125 9.155 0.4375 9.75 C3.83721477 11.7015604 3.83721477 11.7015604 5.125 14.0625 C5 16 5 16 3.5625 17.75 C3.046875 18.1625 2.53125 18.575 2 19 C-1.40312738 17.94124926 -4.01353231 16.99097846 -7 15 C-6.95875 15.78375 -6.9175 16.5675 -6.875 17.375 C-7 20 -7 20 -9 22 C-10.9375 22.0625 -10.9375 22.0625 -13 21 C-16.13424026 15.54410028 -16.63762885 10.21029173 -17 4 C-15.75108386 3.51801537 -14.50081192 3.03954323 -13.25 2.5625 C-12.55390625 2.29566406 -11.8578125 2.02882813 -11.140625 1.75390625 C-7.29793578 0.40055037 -4.08542913 -0.11348414 0 0 Z " fill="#000000" transform="translate(25,27)"/>
<path d="M0 0 C1.65 0.33 3.3 0.66 5 1 C5.33 4.63 5.66 8.26 6 12 C6.99 11.01 7.98 10.02 9 9 C11.6875 9.3125 11.6875 9.3125 14 10 C14.39231744 13.34658663 14.23586947 14.6703069 12.2421875 17.45703125 C11.46101563 18.23433594 10.67984375 19.01164062 9.875 19.8125 C9.10929687 20.60269531 8.34359375 21.39289063 7.5546875 22.20703125 C4.37200171 24.44075109 2.81391353 24.62811488 -1 24 C-5.3680428 21.07808342 -8.55427999 17.56002003 -10 12.5 C-10 11.675 -10 10.85 -10 10 C-7.6875 9.375 -7.6875 9.375 -5 9 C-4.01 9.66 -3.02 10.32 -2 11 C-1.93941406 10.28972656 -1.87882812 9.57945313 -1.81640625 8.84765625 C-1.73261719 7.92855469 -1.64882813 7.00945312 -1.5625 6.0625 C-1.48128906 5.14597656 -1.40007813 4.22945313 -1.31640625 3.28515625 C-1 1 -1 1 0 0 Z " fill="#000000" transform="translate(62,104)"/>
<path d="M0 0 C2.625 0.375 2.625 0.375 5 1 C6.96818336 6.82254243 8.40214229 11.83381819 8 18 C2.38768414 20.34696845 -2.86416876 21.94629469 -9 22 C-10 21 -10 21 -10.0625 18.4375 C-10.041875 17.633125 -10.02125 16.82875 -10 16 C-8.68 15.34 -7.36 14.68 -6 14 C-6.5053125 13.69707031 -7.010625 13.39414063 -7.53125 13.08203125 C-9.49479823 11.81585432 -11.28557949 10.58981351 -13 9 C-13.4375 6.1875 -13.4375 6.1875 -13 4 C-11.4375 3.25 -11.4375 3.25 -9 3 C-6.49713591 4.13084437 -4.32992278 5.52139516 -2 7 C-2.04125 6.21625 -2.0825 5.4325 -2.125 4.625 C-2 2 -2 2 0 0 Z " fill="#000000" transform="translate(112,79)"/>
<path d="M0 0 C2.5546875 1.79296875 2.5546875 1.79296875 4.875 4.1875 C5.65617187 4.96480469 6.43734375 5.74210938 7.2421875 6.54296875 C9.23586947 9.3296931 9.39231744 10.65341337 9 14 C6.6875 14.6875 6.6875 14.6875 4 15 C3.01 14.01 2.02 13.02 1 12 C0.67 15.63 0.34 19.26 0 23 C-1.65 23.33 -3.3 23.66 -5 24 C-6.66342837 22.33657163 -6.36048097 20.2174291 -6.5625 17.9375 C-6.64628906 17.01839844 -6.73007812 16.09929688 -6.81640625 15.15234375 C-6.87699219 14.44207031 -6.93757813 13.73179688 -7 13 C-7.99 13.66 -8.98 14.32 -10 15 C-12.6875 14.625 -12.6875 14.625 -15 14 C-15 8.18845273 -12.1086444 5.48740992 -8.30078125 1.5390625 C-5.25002479 -0.50168121 -3.60699743 -0.58027629 0 0 Z " fill="#000000" transform="translate(67,0)"/>
</svg>
