<?xml version="1.0" encoding="UTF-8"?>
<!DOCTYPE svg PUBLIC "-//W3C//DTD SVG 1.1//EN" "http://www.w3.org/Graphics/SVG/1.1/DTD/svg11.dtd">
<!-- Creator: CorelDRAW 2021 (64-Bit) -->
<svg xmlns="http://www.w3.org/2000/svg" xml:space="preserve" width="500px" height="83px" version="1.1" style="shape-rendering:geometricPrecision; text-rendering:geometricPrecision; image-rendering:optimizeQuality; fill-rule:evenodd; clip-rule:evenodd"
viewBox="0 0 500 83.33"
 xmlns:xlink="http://www.w3.org/1999/xlink"
 xmlns:xodm="http://www.corel.com/coreldraw/odm/2003">
 <defs>
  <style type="text/css">
   <![CDATA[
    .fil5 {fill:#FEFEFE}
    .fil7 {fill:#373435}
    .fil3 {fill:#BE3538}
    .fil2 {fill:#D0AB3B}
    .fil1 {fill:#BB8E3C}
    .fil6 {fill:#B4B8D5}
    .fil0 {fill:#69422F}
    .fil4 {fill:#336840}
    .fil8 {fill:#2E6949}
    .fil9 {fill:#606062;fill-rule:nonzero}
    .fil10 {fill:#0098DA;fill-rule:nonzero}
   ]]>
  </style>
 </defs>
 <g id="Layer_x0020_1">
  <metadata id="CorelCorpID_0Corel-Layer"/>
  <g id="_1486182715248">
   <polygon class="fil0" points="69.22,30.01 44.95,73.07 45.02,76.07 70.05,30.29 "/>
   <ellipse class="fil0" transform="matrix(0.212014 0.125884 -0.125884 0.212014 69.774 29.9274)" rx="4.87" ry="2.93"/>
   <polygon class="fil0" points="21.1,30.01 45.37,73.07 45.3,76.07 20.26,30.29 "/>
   <ellipse class="fil0" transform="matrix(-0.212014 0.125884 0.125884 0.212014 20.5413 29.9274)" rx="4.87" ry="2.93"/>
   <path class="fil0" d="M45.02 30.9l-0.35 0c-0.11,14.58 -0.51,29.16 -0.63,43.74 -0.62,2.31 -1.77,3.81 -3.88,3.93 -0.35,0 -0.52,0.16 -0.48,0.47 0,0.28 0,0.56 0,0.83 -0.02,0.4 0.1,0.58 0.41,0.53 1.69,-0.18 3.24,0.54 4.93,0.59 1.68,-0.05 3.23,-0.77 4.92,-0.59 0.31,0.05 0.43,-0.13 0.42,-0.53 0,-0.27 0,-0.55 0,-0.83 0.03,-0.31 -0.14,-0.47 -0.49,-0.47 -2.11,-0.12 -3.25,-1.62 -3.88,-3.93 -0.12,-14.58 -0.47,-29.16 -0.57,-43.74l-0.4 0z"/>
   <polygon class="fil1" points="44.31,54.6 47.63,45.68 48.67,49.23 "/>
   <polygon class="fil1" points="55.18,51.63 47.62,45.68 51.34,45.76 "/>
   <polygon class="fil1" points="55.6,40.34 47.62,45.71 48.9,42.21 "/>
   <polygon class="fil1" points="45.07,36.43 47.63,45.69 44.71,43.39 "/>
   <polygon class="fil1" points="38.11,45.26 47.64,45.68 44.55,47.73 "/>
   <polygon class="fil2" points="44.31,54.68 47.63,45.68 44.54,47.73 "/>
   <polygon class="fil2" points="55.18,51.63 47.63,45.68 48.67,49.23 "/>
   <polygon class="fil2" points="55.6,40.33 47.63,45.68 51.34,45.76 "/>
   <polygon class="fil2" points="45.07,36.42 47.63,45.68 48.93,42.2 "/>
   <polygon class="fil2" points="38.02,45.26 47.63,45.68 44.71,43.38 "/>
   <path class="fil1" d="M49.72 35.9c-4.29,-2.35 -11.33,1.16 -12.77,4.95 -2.21,3.82 -2.66,9.8 1.34,13.67 3.99,3.87 9.13,4.37 13.04,2.22 3.91,-2.15 6.31,-5.74 6.15,-9.01 -1.63,3.21 -3.11,5.98 -6.35,6.91 -3.23,0.92 -8.33,0.59 -10.95,-2.73 -2.61,-3.33 -2.54,-7.03 -0.97,-10.72 1.58,-3.69 6.29,-6.17 10.51,-5.29z"/>
   <path class="fil2" d="M49.74 35.91c-5.08,-2.78 -12.57,-0.22 -15.27,4.47 -2.7,4.7 -2.79,11.21 1.51,16.04 4.4,4.94 10.7,4.63 15.35,2.07 4.64,-2.55 6.5,-7.25 6.16,-10.78 -0.47,3.9 -2.46,7.24 -6.3,8.85 -3.85,1.62 -9.85,1.51 -13.12,-2.68 -3.27,-4.2 -3.41,-8.95 -0.99,-13.23 2.68,-4.15 7.5,-6.6 12.66,-4.74z"/>
   <path class="fil3" d="M20.7 30.99c1.16,4.14 3.4,7.43 5.27,9.74 -0.96,2.99 -6.93,8.02 -10.55,13.67 -1.53,-3.88 -4.15,-6.28 -5.81,-10.09 4.35,-7.22 7.59,-8.03 11.09,-13.32z"/>
   <path class="fil4" d="M19.78 36.43c0.61,2.15 1.48,2.92 2.45,4.13 -0.5,1.55 -4.64,4.86 -6.53,7.8 -0.79,-2.01 -1.57,-2.06 -2.43,-4.04 2.15,-3.96 4.7,-4.99 6.51,-7.89z"/>
   <path class="fil5" d="M16.77 41.54c0.45,-0.49 1.17,-0.93 1.85,-0.18 0.45,0.82 0.08,1.64 -0.32,2.21 0.06,-0.42 0.14,-1.18 -0.15,-1.65 -0.52,-0.54 -0.7,-0.38 -1.38,-0.38z"/>
   <path class="fil3" d="M69.54 30.99c-1.17,4.14 -3.41,7.43 -5.28,9.74 0.96,2.99 6.93,8.02 10.55,13.67 1.53,-3.88 4.15,-6.28 5.81,-10.09 -4.35,-7.22 -7.59,-8.03 -11.08,-13.32z"/>
   <path class="fil4" d="M70.45 36.43c-0.61,2.15 -1.48,2.92 -2.45,4.13 0.5,1.55 4.64,4.86 6.53,7.8 0.79,-2.01 1.57,-2.06 2.43,-4.04 -2.15,-3.96 -4.7,-4.99 -6.51,-7.89z"/>
   <path class="fil5" d="M73.46 41.54c-0.45,-0.49 -1.17,-0.93 -1.85,-0.18 -0.45,0.82 -0.08,1.64 0.32,2.21 -0.06,-0.42 -0.14,-1.18 0.15,-1.65 0.53,-0.54 0.7,-0.38 1.38,-0.38z"/>
   <path class="fil6" d="M29.44 65.13l0.63 2.04c-2.09,0.59 -4.12,1.34 -6.12,2.54l3.89 1.2 -1.72 4.14c3.53,-1.55 6.51,-2.59 8.75,-2.89l-0.62 -1.39 1.54 -0.66 5.29 -0.63 4.63 -0.26 5.55 0.35 5.9 1.39 -1.69 0.84 -0.23 0.26 1.12 0.4 3.95 1.11 3.48 1.71 -0.6 -1.48 -1.2 -2.84 3.83 -1.3 -2.75 -1.41 -3.42 -0.99 0.66 -2.09 -4.7 -1.43 -8.26 -1.01 -8.53 0.4c-2.37,0.16 -4.73,0.51 -7.06,1.29l-2.32 0.71z"/>
   <path class="fil7" d="M44.9 69.46c-3.32,0.09 -6.83,0.2 -10.23,1.38 0.18,0.47 0.33,0.94 0.51,1.43 -3.34,0.66 -6.47,1.89 -9.52,3.34 0.66,-1.47 1.29,-3.07 1.92,-4.51 -1.15,-0.47 -2.65,-0.89 -4.18,-1.29 1.31,-0.94 3.48,-1.86 6.51,-2.75l-0.7 -2.08c5.2,-1.73 10.42,-2.42 15.69,-2.42 5.27,0 10.49,0.69 15.69,2.42l-0.69 2.08c3.03,0.89 5.2,1.81 6.51,2.75 -1.54,0.4 -3.03,0.82 -4.18,1.29 0.63,1.44 1.25,3.04 1.91,4.51 -3.04,-1.45 -6.17,-2.68 -9.51,-3.34 0.17,-0.49 0.33,-0.96 0.5,-1.43 -3.39,-1.18 -6.9,-1.29 -10.23,-1.38zm14.81 -2.05c-0.52,1.31 -1.05,2.61 -1.57,3.92 -0.82,0.2 -1.65,0.43 -2.49,0.66 2.74,0.68 5.26,1.63 7.75,2.71 -0.6,-1.3 -1.17,-2.61 -1.74,-3.91 1.23,-0.39 2.47,-0.77 3.72,-1.15 -1.74,-0.87 -3.58,-1.72 -5.67,-2.23zm-29.56 0c0.52,1.31 1.04,2.61 1.57,3.92 0.81,0.2 1.65,0.43 2.48,0.66 -2.73,0.68 -5.25,1.63 -7.74,2.71 0.59,-1.3 1.17,-2.61 1.74,-3.91 -1.23,-0.39 -2.47,-0.77 -3.72,-1.15 1.74,-0.87 3.58,-1.72 5.67,-2.23zm14.72 1.58c-4.44,0.14 -8.84,0.46 -13.01,1.71 -0.72,-1.83 -1.45,-3.65 -2.18,-5.46 3.97,-1.29 8.53,-2.26 15.19,-2.28 6.66,0.02 11.22,0.99 15.19,2.28 -0.74,1.81 -1.47,3.63 -2.18,5.46 -4.17,-1.25 -8.58,-1.57 -13.01,-1.71z"/>
   <path class="fil7" d="M57.81 66.32c0,0 -0.52,-1.04 -0.52,-0.05 0,0.99 -0.02,1.53 -0.26,2.02 -0.24,0.48 -0.19,0.94 0.24,0.45 0.44,-0.49 0.47,-1.29 0.47,-1.29 0,0 -0.07,-0.28 0.14,-0.17 0.21,0.1 -0.07,-0.8 -0.07,-0.96zm-1.84 1.9c0,0 -0.38,0.26 -0.12,0.59 0.26,0.33 0.38,0.14 0.4,-0.07 0.02,-0.21 0,-0.3 -0.12,-0.35 -0.13,-0.05 -0.21,-0.09 -0.16,-0.17zm0.38 -2.65c0,0 -0.36,-0.54 -0.43,0.25 -0.07,0.78 0.08,1.34 -0.25,1.6 -0.33,0.26 -2.1,0.1 -2.17,-0.11 -0.07,-0.21 -0.63,0.02 -0.7,-1.11 -0.07,-1.13 -0.34,-1.15 -0.38,-1.25 -0.03,-0.11 -0.5,-0.11 -0.31,0.33 0.19,0.43 0.4,0.88 0.26,1.46 -0.14,0.57 -1.55,0.99 -1.52,0.57 0.04,-0.41 0.7,-0.41 0.67,-1.11 -0.04,-0.7 -0.4,-1.11 -0.51,-1.18 -0.1,-0.07 -0.66,-0.23 -0.66,0.22 0,0.46 0.09,1.05 0.42,1.01 0.33,-0.03 0.57,-0.09 0.35,0.07 -0.23,0.16 -0.42,0.54 -0.8,0.66 -0.39,0.12 -0.94,0.37 -1.31,0.39 -0.36,0.01 0.04,0.26 0.05,0.26 0.02,0 1.01,0.08 1.17,-0.04 0.15,-0.12 0.24,-0.35 0.29,-0.15 0.06,0.19 -0.12,0.31 0.02,0.36 0.14,0.05 0.73,0.19 1.01,0.09 0.28,-0.11 0.59,-0.58 0.85,-0.58 0.26,0 0.68,0.49 0.91,0.54 0.22,0.05 1.39,0.45 2.03,0.28 0.65,-0.17 0.87,-0.9 0.91,-1.08 0.03,-0.17 -0.05,-0.52 0.1,-0.48 0.16,0.03 0.3,-0.11 0.25,-0.34 -0.06,-0.22 -0.25,-0.66 -0.25,-0.66zm-2.42 -0.45c0,0 -0.38,0.82 0,0.8 0.39,-0.02 0.07,-0.03 0.2,0.31 0.12,0.35 0.15,0.49 0.12,0.67 -0.04,0.17 0.17,0.19 0.24,-0.02 0.07,-0.21 0.3,-0.73 0.31,-0.89 0.02,-0.16 0.23,-0.35 0.25,-0.22 0.01,0.12 0.38,0.05 0.28,-0.23 -0.11,-0.28 -0.4,-0.35 -0.61,-0.05 -0.21,0.29 -0.23,0.69 -0.28,0.41 -0.05,-0.27 -0.16,-1.06 -0.51,-0.78zm-17.86 0.78c0,0 -0.16,0.21 0,0.21 0.15,0 0.03,-0.01 0.08,0.07 0.06,0.11 0.06,0.14 0.06,0.19 -0.02,0.06 0.07,0.06 0.08,0 0.04,-0.05 0.14,-0.21 0.14,-0.24 0,-0.03 0.09,-0.1 0.11,-0.07 0,0.04 0.15,0.02 0.1,-0.05 -0.03,-0.09 -0.15,-0.11 -0.24,-0.02 -0.09,0.09 -0.11,0.19 -0.12,0.12 -0.02,-0.08 -0.07,-0.29 -0.21,-0.21zm17.1 -0.92c0,0 0.35,0.18 0.29,0.49 -0.05,0.31 -0.29,0.23 -0.27,0.14 0.01,-0.09 -0.04,-0.23 0.08,-0.25 0.12,-0.01 -0.1,-0.38 -0.1,-0.38zm-0.85 2.58c0,0 0.34,0.17 0.29,0.48 -0.05,0.32 -0.29,0.23 -0.28,0.14 0.02,-0.08 -0.03,-0.22 0.09,-0.24 0.12,-0.02 -0.1,-0.38 -0.1,-0.38zm-1 -3.24c0,0 0.35,0.18 0.3,0.49 -0.05,0.31 -0.3,0.22 -0.28,0.14 0.02,-0.09 -0.03,-0.23 0.09,-0.25 0.12,-0.01 -0.11,-0.38 -0.11,-0.38zm-2.4 0.98c0,0 0.35,0.17 0.3,0.48 -0.05,0.32 -0.3,0.23 -0.28,0.14 0.02,-0.09 -0.03,-0.22 0.09,-0.24 0.12,-0.02 -0.11,-0.38 -0.11,-0.38zm-1.63 -1.15c0,0 0.35,0.17 0.29,0.48 -0.05,0.32 -0.29,0.23 -0.27,0.14 0.01,-0.08 -0.04,-0.22 0.08,-0.24 0.12,-0.02 -0.1,-0.38 -0.1,-0.38zm-13.03 3.48c0,0 -0.28,0.38 -0.07,0.83 0.22,0.42 0.43,0.19 0.38,0.07 -0.05,-0.12 -0.09,-0.33 -0.22,-0.31 -0.14,0.03 -0.09,-0.59 -0.09,-0.59zm8.91 -0.18c0,0 0.19,0.09 0.15,0.26 -0.02,0.18 -0.15,0.13 -0.14,0.09 0,-0.05 -0.01,-0.12 0.04,-0.14 0.07,-0.02 -0.05,-0.21 -0.05,-0.21zm-2.07 -2.95c0,0 0.34,0.17 0.29,0.48 -0.05,0.32 -0.29,0.23 -0.28,0.14 0.02,-0.09 -0.03,-0.22 0.09,-0.24 0.12,-0.02 -0.1,-0.38 -0.1,-0.38zm8.5 -0.37c0,0 -0.31,0.19 -0.15,0.71 0.15,0.52 0.29,0.99 0.15,1.27 -0.14,0.28 -1.13,0.8 -1.63,0.51 -0.51,-0.3 -0.39,-0.98 -0.91,-0.44 -0.52,0.54 -0.71,1.38 -0.97,1.15 -0.26,-0.23 -0.3,-0.03 -0.3,-0.43 0,-0.4 0.21,-0.07 0.33,-0.18 0.12,-0.1 0.28,-0.36 0.06,-0.36 -0.23,0 -0.54,-0.14 -0.74,-0.25 -0.19,-0.1 -0.87,-0.15 -0.29,-0.31 0.57,-0.16 0.56,0.12 0.69,0.14 0.14,0.02 0.18,-0.04 0.11,-0.23 -0.07,-0.19 -0.37,-0.22 -0.35,-0.57 0.02,-0.35 -0.07,-0.31 -0.07,-0.42 0,-0.1 -0.03,0.05 0.16,-0.12 0.19,-0.17 -0.09,-0.24 -0.18,-0.37 -0.08,-0.12 -0.33,-0.47 -0.34,-0.31 -0.02,0.16 -0.18,0.33 -0.07,0.66 0.1,0.33 0.17,0.58 0.08,0.75 -0.08,0.17 -0.88,0.42 -1.04,0.59 -0.16,0.18 -0.31,0.49 -0.12,0.52 0.19,0.04 0.14,0 0.4,0.04 0.26,0.03 -0.23,0.19 -0.51,0.19 -0.28,0 -1.04,0.1 -1.14,-0.24 -0.11,-0.35 -0.3,0 -0.4,-0.8 -0.11,-0.8 -0.18,-0.72 -0.28,-1.38 -0.11,-0.66 -0.47,0.07 -0.49,0.04 -0.02,-0.04 0.23,1.34 0.28,1.56 0.05,0.23 0.22,1.41 0,1.12 -0.23,-0.3 -0.59,-1.14 -0.66,-1.29 -0.07,-0.16 -0.33,-0.58 -0.39,-0.59 -0.05,-0.02 -0.45,-0.11 -0.26,0.27 0.19,0.39 0.72,1.08 0.35,1.34 -0.36,0.27 -0.71,0.39 -0.85,0.37 -0.14,-0.02 -0.37,-0.16 -0.28,-0.4 0.09,-0.24 0.23,-0.75 0,-0.54 -0.23,0.21 -0.4,0.91 -0.31,1.08 0.08,0.17 0.36,0.61 0.88,0.4 0.53,-0.21 0.79,-0.66 0.93,-0.57 0.14,0.08 0.05,0.33 0.31,0.4 0.26,0.06 0.82,0.06 1.08,-0.25 0.26,-0.31 0.45,-0.03 0.49,0 0.03,0.04 0.74,0.07 1.4,-0.28 0.67,-0.34 0.87,-0.12 0.96,-0.12 0.09,0 0.18,0.19 0.16,0.59 -0.02,0.4 0.35,0.59 0.49,0.52 0.13,-0.06 0.31,-0.59 0.95,-1.16 0.65,-0.58 0.3,-0.19 0.35,-0.04 0.05,0.16 0.64,0.53 0.87,0.49 0.23,-0.03 1.32,-0.28 1.32,-0.42 0,-0.14 0.47,-0.34 0.33,-1.21 -0.14,-0.87 -0.28,-0.73 -0.24,-0.82 0.03,-0.09 0.43,0.02 -0.16,-0.61zm-3.27 -0.02c0,0 -0.49,0.12 -0.29,0.49 0.19,0.36 0.26,1.41 0.26,1.32 0,-0.09 0.07,0.91 0.36,0.16 0.3,-0.75 0,-0.54 -0.05,-0.87 -0.05,-0.33 0.17,-0.19 0.07,-0.54 -0.1,-0.35 -0.35,-0.56 -0.35,-0.56zm1.18 1.1l-0.17 -0.16 -0.17 0.26 0.24 0.21 0.21 -0.19 0.36 0.16 0.2 -0.28 -0.32 -0.26 -0.35 0.26zm-3.53 -0.96l-1.35 0.7 -0.11 0.28 1.62 -0.75 -0.16 -0.23zm0.42 0.71l-1.36 0.7 -0.1 0.28 1.62 -0.75 -0.16 -0.23zm-5.24 -0.4l0.54 0.2c0,0 -0.08,0.57 -0.33,0.6 -0.24,0.04 -0.61,0.2 -0.41,-0.13 0.19,-0.33 0.03,-0.33 -0.02,-0.21 -0.05,0.12 -0.21,-0.07 -0.09,-0.19 0.12,-0.13 0.31,-0.27 0.31,-0.27zm-6.9 1.03l0.54 0.19c0,0 -0.09,0.58 -0.33,0.61 -0.25,0.04 -0.61,0.19 -0.42,-0.14 0.19,-0.33 0.03,-0.33 -0.02,-0.21 -0.05,0.12 -0.21,-0.07 -0.09,-0.19 0.13,-0.12 0.32,-0.26 0.32,-0.26zm12.68 1.76c0,0 -0.52,0.05 -0.28,0.24 0.25,0.19 0.02,0.19 0.05,0.31 0.04,0.13 0.39,0.44 0.49,0.21 0.11,-0.22 0.11,-0.31 -0.02,-0.31 -0.12,0 -0.17,-0.09 -0.12,-0.19 0.05,-0.11 -0.12,-0.26 -0.12,-0.26zm-4.11 0.35c0,0 -0.48,0.12 -0.54,0.27 -0.05,0.16 0,0.28 0.28,0.13 0.28,-0.16 0.53,-0.42 0.26,-0.4zm-2.01 -0.23l-0.16 -0.17 -0.23 0.33 0.35 0.27 0.23 -0.24 0.21 0.18 0.14 -0.25 -0.16 -0.24 -0.28 0.19 -0.1 -0.07zm-5.36 -1.77l-0.19 -0.14 -0.16 0.36 0.4 0.21 0.17 -0.28 0.23 0.12 0.09 -0.26 -0.19 -0.21 -0.25 0.25 -0.1 -0.05zm5.39 0.24c0,0 0.12,0.28 0.05,0.45 -0.07,0.18 -0.41,0.23 -0.45,0.02 -0.03,-0.21 -0.49,-0.75 -0.52,-1.03 -0.04,-0.28 -0.21,-0.03 -0.21,0.16 0,0.19 0.07,0.54 0.17,0.68 0.11,0.14 0.16,0.43 0.02,0.52 -0.14,0.09 -0.26,0.16 -0.36,0.03 -0.11,-0.12 -0.53,-0.61 -0.63,-0.34 -0.1,0.26 -0.54,0.69 -0.89,0.73 -0.35,0.03 -0.57,0.26 -1.04,-0.09 -0.47,-0.35 -1.36,-0.87 -1.51,-0.24 -0.16,0.62 -0.23,1.7 -0.75,1.21 -0.52,-0.48 -0.87,-0.69 -0.65,-0.2 0.23,0.48 0.7,1.02 0.91,0.9 0.21,-0.12 0.57,-0.38 0.68,-0.89 0.1,-0.5 0.15,-1.09 0.69,-0.57 0.54,0.52 0.56,0.62 1.43,0.52 0.87,-0.1 0.97,-0.33 1.11,-0.49 0.14,-0.15 0.09,-0.17 0.47,-0.01 0.38,0.15 0.8,0 0.85,-0.25 0.06,-0.24 0.3,-0.21 0.3,-0.1 0,0.1 0.51,0.21 0.64,-0.07 0.14,-0.28 0.11,-0.73 -0.31,-0.94zm-2.66 -1.08l-1.55 0.96 0.05 0.28 1.73 -0.96 0.01 -0.35 -0.24 0.07zm1.67 2.84l-0.16 0.24 0.32 0.19 0.1 -0.35 -0.26 -0.08z"/>
   <path class="fil8" d="M46.29 29.8l0 0zm-3.36 -4.52l0 0zm6.27 -4.37l0 0zm-10.34 -6.99l0 0zm2.91 -2.19l0 0zm7.28 -0.58l0 0zm-8.74 -0.29l0 0zm12.53 -1.46l0 0zm-8.35 6.62c-0.18,-2.08 -0.63,-4.11 -1.32,-5.99 -0.92,-2.51 -1.98,-3.61 -2.51,-4.78 0.39,0.23 0.72,0.75 0.96,1.1 0.27,0.39 0.49,0.74 0.72,1.18 2.27,4.41 1.5,4.65 2.59,8.45 0.89,-2.43 3.3,-8.27 5.18,-9.64 -2.01,2.96 -3.69,5.77 -4.71,9.48l2.5 -2.04c1.95,-1.43 6.96,-4.14 9.03,-3.86 -1.74,0.24 -5.12,1.74 -6.52,2.58 -1.02,0.62 -4.3,2.94 -4.87,4 3.5,-0.49 5.85,-1.23 9.63,-0.56 0.76,0.13 2.14,0.32 2.67,0.8 -2.4,-0.29 -3.84,-0.79 -6.46,-0.66 -1.84,0.08 -4.21,0.41 -5.97,0.95 0.99,0.44 2.11,0.71 3.16,1.15 1.98,0.84 3.83,1.79 5.44,3.16 1.16,0.99 1.1,0.89 2.06,2.18 -0.44,-0.3 -0.69,-0.71 -1.12,-1.07 -3.02,-2.58 -5.33,-3.93 -9.6,-5.03 0.82,1.52 2.11,3.13 3.64,6.04 2.38,4.56 1.71,4.74 2.51,6.67 -0.21,-1.48 -2,-5.33 -2.79,-6.7 -0.66,-1.14 -2.77,-4.74 -3.64,-5.84 -0.38,0.85 -0.62,6.54 -0.62,7.83 -0.01,4.21 0.45,4.68 0.68,7.6l-0.12 -0.72c-0.63,-2.03 -0.78,-4.64 -0.8,-6.73 -0.03,-2.77 0.29,-5.33 0.44,-8.02 -0.6,0.97 -1.35,2.02 -1.99,3.08 -1.53,2.55 -4.17,7.46 -4.65,10.21 0.11,-0.22 0.76,-2.88 1.08,-3.72 1,-2.58 1.97,-4.26 3.32,-6.59 0.56,-0.97 1.43,-2.16 1.9,-3.18 -3.17,0.76 -8.73,3.66 -10.61,5.84 -0.36,0.41 -0.83,0.87 -1.32,1.1 1.18,-1.57 3.24,-3.18 5.21,-4.36 3.08,-1.83 4.33,-1.89 6.36,-2.92 -2.07,-0.48 -4.32,-0.85 -6.55,-0.82 -2.57,0.04 -3.97,0.58 -6.31,0.97l1.4 -0.58c4.21,-1.26 7.68,-0.53 11.74,-0.01 -0.27,-0.57 -2.69,-2.88 -3.32,-3.4 -1.47,-1.23 -6.48,-3.8 -7.33,-3.36 2.12,-0.28 7.22,2.43 8.64,4.09l1.58 1.62c0.13,0.13 0.16,0.18 0.33,0.3 0.31,0.22 -0.18,-0.04 0.36,0.2zm-2.72 -4.29c-0.28,-0.19 -0.99,-0.75 -1.17,-1.02l-0.29 0.15c-0.75,-0.51 -0.77,-1.02 -1.38,-1.04 -0.51,-0.01 0.31,0.04 -0.14,0.02 -0.59,-0.03 -0.45,-0.48 -1.47,-0.67 -1.13,-0.21 -2.49,-0.88 -3.29,-0.44 -0.37,0.2 -1.08,0.29 -1.88,0.67 -0.09,0.04 0.06,0.02 -0.29,0.14l0.59 0.73c0.02,0.02 0.06,0.04 0.08,0.06l2.6 1.43c0.24,0.14 0.09,0.26 0.96,0.26 0.01,0.02 0,0.04 0.01,0.07 0.02,0.34 0.26,0.45 1.01,0.51 0.09,0.28 0.08,-0.2 -0.15,0.44 0.13,0 0.47,-0.02 0.58,0 0.39,0.06 1.18,0.51 1.32,0.88l-0.88 0.14c-0.03,0.01 -0.07,0.03 -0.09,0.04 -0.03,0 -0.07,0.02 -0.1,0.02 -0.55,0.1 0.07,0.02 -0.43,-0.01 -1,-0.06 -2.34,-0.06 -3.19,0.3 -0.02,0.01 -0.06,0.02 -0.08,0.03 -0.19,0.07 -0.14,0.03 -0.31,0.07 -0.24,0.06 -0.15,0.03 -0.35,0.09l-1.11 0.35c-0.35,0.18 0.02,0.01 -0.27,0.17 -1.22,0.71 -2.53,1.6 -2.67,3.17l3.42 -0.21c0.75,-0.05 0.01,0.01 0.62,-0.12l3.44 -0.2c0.47,0.05 0.01,-0.02 0.64,-0.07 0.35,-0.03 0.59,0.16 1.21,0.01l0 0.44c-0.39,0.03 -0.46,0.07 -0.85,0.17l-1.51 0.68c-0.02,0.02 -0.06,0.04 -0.08,0.06 -0.69,0.52 -1.14,0.56 -1.31,0.72 -0.24,0.22 -0.01,0.28 -0.42,0.47 -0.41,0.18 -0.43,0.04 -0.73,0.41l-1.54 1.46 -1.25 2.17c-0.1,0.23 -0.07,0.12 -0.1,0.33 -0.08,0.49 0.07,0.75 0.07,1.4 1.15,-0.1 1.4,-0.47 2.31,-0.77l0.92 -0.52c0.66,-0.4 0.6,-0.52 0.91,-0.6l2.04 -1.75c0.28,-0.17 0.21,0.06 0.83,-0.56l0.52 -0.37c0.03,-0.01 0.07,-0.03 0.1,-0.05l1.98 -0.77c-0.3,0.45 -0.68,0.87 -1.02,1.31 -0.53,0.68 -0.35,0.93 -0.68,1.35 -0.19,0.23 -0.41,0.32 -0.57,0.6 -0.25,0.43 -0.03,0.16 -0.14,0.52 -0.15,0.52 -0.4,0.32 -0.78,1.67l-0.24 0.95c-0.01,0.03 -0.02,0.07 -0.02,0.09l-0.24 0.46c-0.06,0.11 -0.08,-0.02 -0.11,0.33l0.02 0.21c0,0.02 0.01,0.06 0.01,0.08 -0.01,0.48 -0.09,0.29 -0.12,0.83l0.15 2.06 0.68 1.34c0.7,-0.47 1.01,-0.68 1.58,-1.36l1.51 -2.7c0.13,-0.28 0.1,-0.39 0.21,-0.58 0.32,-0.58 -0.1,0.45 0.27,-0.39 0.16,-0.34 0.05,-0.26 0.24,-0.63 0.33,-0.62 1.11,-1.54 1.29,-2.21l0.1 0.41c0.11,0.36 -0.3,0.15 0.19,0.32 -0.04,0.57 -0.31,0.97 -0.22,1.4 0.01,0.03 0.03,0.07 0.04,0.1l0.08 0.2c0.13,0.47 0.03,0.37 -0.02,0.79 -0.09,0.89 0.27,1.83 0.27,2.9 0.02,0.01 0.06,-0.01 0.06,0.02l0.24 0.98c0.18,0.33 0.56,0.54 0.72,1.14 0.44,0.11 0.41,0.18 0.93,0.66l0.23 0.26 0.29 0.16c0.12,-0.99 0.34,0.15 0.54,-1.64l0.04 -0.17c0.24,-0.78 0.17,-1.67 0.16,-2.28l-0.02 -0.93c0,0 0.22,0.41 0.09,-0.44 -0.06,-0.36 -0.11,-0.45 -0.22,-0.67 0.23,-0.12 -0.27,-0.15 0.44,0 -0.41,-0.78 -0.35,-0.66 -0.25,-1.13l0.1 -2.66c0.27,0.31 0.26,0.57 0.45,0.82l0.1 0.1c0.57,0.58 1.02,1.55 1.29,1.78 0.45,0.41 0.17,0.39 0.48,0.76 0.36,0.44 -0.1,-0.54 0.55,0.95l0.45 0.87c0.02,0.02 0.05,0.05 0.07,0.08l1.16 1.46c0.16,0.15 -0.01,0.04 0.31,0.25 0.53,0.38 -0.47,-0.28 0.21,0.12l0.76 0.53c0.22,-0.82 0.85,-1.75 0.65,-3.36 -0.05,-0.33 -0.18,-0.4 -0.21,-0.6 0,-0.01 0,-0.05 0,-0.07 0,-0.01 0.01,-0.05 0.01,-0.07 0.02,-0.83 -0.17,-0.21 -0.14,-0.87 0,-0.01 0.01,-0.06 0.01,-0.07 0.03,-0.64 -0.15,-0.33 -0.36,-1.06 -0.19,-0.64 0.07,-0.09 -0.59,-1 -0.53,-0.74 0.25,-0.45 -0.66,-1.24 -0.79,-0.7 0.06,-0.37 -0.71,-1.17 -0.35,-0.37 -0.8,-0.89 -1.06,-1.27l2.08 0.96c0.54,0.31 -0.08,0.24 0.75,0.56 0.21,0.08 0.09,-0.03 0.31,0.16l1.18 0.98c0.83,0.81 0.55,0.5 1.4,1.06l1.28 0.65c0.67,0.21 0.6,0 1.3,0.14 0.07,-0.82 0.05,-1.37 -0.25,-2.21 -0.03,-0.09 -0.16,-0.43 -0.16,-0.43l-0.1 -0.36c-0.16,-0.56 -0.29,-0.33 -0.53,-0.78 -0.02,-0.03 -0.04,-0.12 -0.05,-0.15l-0.08 -0.15c-0.27,-0.35 -0.27,-0.03 -0.69,-0.69l-0.44 -0.49c-1.5,-1.44 -1.13,-0.33 -1.72,-1.28 -0.28,-0.44 -0.51,-0.33 -0.99,-0.54 -0.96,-0.42 0.24,0.15 -0.46,-0.43 -0.27,-0.23 -1.18,-0.49 -1.66,-0.5 0.45,-0.29 2.53,0.02 2.62,0.02l0.23 -0.05c0.49,-0.05 0.46,0.13 1.08,0.18 0.17,-0.1 -0.05,-0.14 0.65,0.08 0.53,0.17 0.39,0.03 0.66,0.05 0.67,0.06 -0.12,0.13 0.66,0.17 0.01,0 0.05,-0.01 0.07,-0.01l0.49 0.06c0.7,0.08 1.82,0.09 2.51,-0.13 0.05,-0.01 0.31,-0.1 0.38,-0.13l-0.1 -1.05c-0.48,-1.09 -0.76,-0.55 -0.82,-0.99 -0.05,-0.33 0.01,0.14 -0.63,-0.49 -0.45,-0.43 -0.73,-0.13 -1.05,-0.51l-1.07 -0.11c-0.01,-0.02 -0.03,-0.07 -0.03,-0.06l-0.12 -0.38c-0.51,0 -1.11,0.12 -1.3,0.06 -0.55,-0.2 0.53,-0.12 -0.46,-0.21l-0.72 0.15c-0.67,-0.22 -0.02,-0.07 -0.23,-0.18 -0.51,-0.28 -0.87,0.04 -1.66,0.04 0.4,-0.61 -0.08,-0.39 0.47,-0.7 0.03,-0.02 0.15,-0.08 0.19,-0.09l0.65 -0.25c0.39,-0.16 0.11,-0.02 0.26,-0.13l0.15 -0.15c0.02,-0.01 0.05,-0.04 0.06,-0.05 0.36,-0.22 0.33,-0.01 0.53,-0.27 0.16,-0.21 -1.07,-0.26 0.9,-0.26 0.12,-0.34 0.02,-0.2 0.45,-0.41 0.04,-0.02 0.08,-0.03 0.11,-0.05l0.2 -0.08c0.03,-0.02 0.07,-0.04 0.1,-0.05 0.64,-0.36 1.79,-0.83 2.27,-1.23 0.56,-0.46 -0.07,-0.16 0.51,-0.36l0 -0.3c-0.53,-0.12 -0.3,-0.22 -1.51,-0.53 -1.95,-0.52 -0.76,-0.1 -1.99,-0.2 -0.02,0 -0.06,-0.01 -0.07,-0.01 -0.6,-0.02 -0.32,0.18 -0.95,0.16 -0.28,-0.01 0.3,-0.17 -0.3,0.01 -0.26,0.07 -0.5,0.28 -0.72,0.43l0 -0.29c-0.78,0.18 -0.56,0.38 -1.02,0.57 -0.83,0.34 0.34,-0.46 -0.87,0.14 -0.72,0.36 -1.24,0.88 -1.9,1.33l1.48 -2.84c0.1,-0.18 -0.07,-0.56 0.85,-0.81 -0.21,-0.6 -0.33,-0.04 0.25,-0.74 0.16,-0.18 0.03,-0.03 0.12,-0.22 0.01,-0.02 0.02,-0.06 0.03,-0.08 0.39,-0.82 0.59,-0.66 0.83,-1.52 0.14,-0.47 0.05,-0.25 0.05,-0.66l0.04 -0.71 -1.86 0.4c-0.71,0.22 -0.69,0.49 -1.12,0.61 -0.01,0 -0.05,0 -0.06,0.01 -0.02,0 -0.05,0.01 -0.07,0.02 -0.69,0.44 0.06,0.74 -0.83,0.42 -0.25,0.94 -0.61,0.47 -0.96,1.22l-1.16 1.83c-0.63,0.65 -0.54,2.13 -1.23,2.63 -0.01,-0.36 -0.01,-0.45 -0.29,-0.56l-0.15 -0.02c-0.02,-0.27 -0.12,-0.82 -0.2,-1.12 -0.09,-0.34 -0.13,-0.46 -0.39,-0.59l-0.13 -0.04c0,-0.7 -0.1,-0.61 -0.15,-1.17l-0.39 0c-0.01,0 -0.03,0.01 -0.05,0 -0.01,-0.56 -0.33,-0.98 -0.46,-1.11 -0.87,-0.86 -0.72,-1.77 -2.48,-2.35l-0.23 -0.09c-0.23,-0.09 -0.16,-0.08 -0.26,-0.09l-1.23 -0.15c0.18,0.84 0,0.18 -0.02,0.53l0.03 0.38c0.01,0.02 0.02,0.07 0.02,0.09l0.56 1.68c0.01,0.03 0.04,0.13 0.05,0.16l0.93 1.86c0.78,0.95 -0.48,-0.23 0.44,0.88 0.91,1.1 -0.73,-0.24 0.13,0.72 0.27,0.3 0.35,0.19 0.46,0.38 0.21,0.37 0.08,-0.12 0,0.15 -0.01,0.02 -0.05,0.07 -0.06,0.09 -0.17,0.27 0.22,0.62 0.23,0.69l-0.04 0.28c-0.01,0.28 -0.07,-0.05 0.04,0.42z"/>
  </g>
  <polygon class="fil9" points="98.44,12.19 105.48,30.9 112.5,12.19 117.99,12.19 117.99,36.6 113.76,36.6 113.76,28.55 114.18,17.79 106.97,36.6 103.93,36.6 96.75,17.81 97.16,28.55 97.16,36.6 92.94,36.6 92.94,12.19 "/>
  <path id="_1" class="fil9" d="M126.94 36.6l-4.08 0 0 -18.14 4.08 0 0 18.14zm-4.33 -22.85c0,-0.63 0.2,-1.15 0.6,-1.56 0.4,-0.42 0.96,-0.62 1.7,-0.62 0.74,0 1.31,0.2 1.71,0.62 0.4,0.41 0.6,0.93 0.6,1.56 0,0.61 -0.2,1.13 -0.6,1.53 -0.4,0.41 -0.97,0.61 -1.71,0.61 -0.74,0 -1.3,-0.2 -1.7,-0.61 -0.4,-0.4 -0.6,-0.92 -0.6,-1.53z"/>
  <path id="_2" class="fil9" d="M135.15 18.46l0.12 2.09c0.63,-0.77 1.4,-1.37 2.29,-1.79 0.9,-0.42 1.89,-0.64 2.99,-0.64 0.87,0 1.66,0.12 2.37,0.36 0.71,0.24 1.32,0.63 1.82,1.17 0.5,0.54 0.89,1.23 1.17,2.09 0.27,0.87 0.41,1.91 0.41,3.14l0 11.72 -4.08 0 0 -11.76c0,-0.62 -0.07,-1.15 -0.21,-1.58 -0.14,-0.43 -0.34,-0.78 -0.61,-1.05 -0.27,-0.27 -0.6,-0.46 -1,-0.58 -0.4,-0.11 -0.85,-0.17 -1.36,-0.17 -0.84,0 -1.57,0.2 -2.19,0.6 -0.62,0.4 -1.12,0.95 -1.49,1.63l0 12.91 -4.07 0 0 -18.14 3.84 0z"/>
  <path id="_3" class="fil9" d="M154.8 36.6l-4.08 0 0 -18.14 4.08 0 0 18.14zm-4.33 -22.85c0,-0.63 0.2,-1.15 0.6,-1.56 0.4,-0.42 0.96,-0.62 1.7,-0.62 0.74,0 1.31,0.2 1.71,0.62 0.4,0.41 0.6,0.93 0.6,1.56 0,0.61 -0.2,1.13 -0.6,1.53 -0.4,0.41 -0.97,0.61 -1.71,0.61 -0.74,0 -1.3,-0.2 -1.7,-0.61 -0.4,-0.4 -0.6,-0.92 -0.6,-1.53z"/>
  <path id="_4" class="fil9" d="M169.4 31.67c0,-0.29 -0.05,-0.56 -0.14,-0.81 -0.1,-0.25 -0.29,-0.49 -0.56,-0.71 -0.28,-0.22 -0.68,-0.42 -1.19,-0.61 -0.51,-0.19 -1.17,-0.37 -1.98,-0.54 -0.97,-0.2 -1.86,-0.45 -2.66,-0.75 -0.8,-0.3 -1.48,-0.67 -2.05,-1.1 -0.57,-0.43 -1.02,-0.94 -1.33,-1.52 -0.33,-0.58 -0.49,-1.25 -0.49,-2.01 0,-0.74 0.17,-1.44 0.49,-2.1 0.33,-0.66 0.79,-1.25 1.4,-1.75 0.61,-0.51 1.35,-0.91 2.22,-1.2 0.86,-0.3 1.83,-0.45 2.9,-0.45 1.13,0 2.14,0.15 3.05,0.45 0.9,0.29 1.66,0.7 2.28,1.22 0.63,0.52 1.11,1.13 1.44,1.84 0.33,0.7 0.49,1.46 0.49,2.28l-4.07 0c0,-0.35 -0.07,-0.68 -0.2,-1.02 -0.14,-0.33 -0.34,-0.62 -0.6,-0.88 -0.27,-0.26 -0.61,-0.46 -1,-0.61 -0.4,-0.15 -0.86,-0.22 -1.39,-0.22 -0.51,0 -0.96,0.06 -1.34,0.19 -0.38,0.13 -0.69,0.29 -0.94,0.5 -0.26,0.2 -0.45,0.45 -0.57,0.72 -0.12,0.27 -0.18,0.56 -0.18,0.86 0,0.31 0.05,0.58 0.17,0.81 0.11,0.24 0.31,0.45 0.59,0.64 0.29,0.18 0.67,0.36 1.15,0.52 0.48,0.17 1.08,0.32 1.81,0.48 1.05,0.23 1.99,0.49 2.83,0.79 0.83,0.3 1.53,0.67 2.11,1.11 0.57,0.43 1.01,0.95 1.32,1.54 0.29,0.59 0.45,1.3 0.45,2.11 0,0.8 -0.17,1.54 -0.52,2.21 -0.35,0.67 -0.84,1.26 -1.49,1.74 -0.64,0.48 -1.41,0.86 -2.32,1.13 -0.9,0.27 -1.91,0.41 -3.01,0.41 -1.25,0 -2.34,-0.18 -3.3,-0.54 -0.96,-0.35 -1.76,-0.81 -2.4,-1.38 -0.66,-0.57 -1.14,-1.21 -1.47,-1.94 -0.33,-0.72 -0.5,-1.45 -0.5,-2.2l3.96 0c0.03,0.56 0.16,1.03 0.39,1.41 0.22,0.38 0.5,0.69 0.85,0.92 0.34,0.24 0.74,0.41 1.17,0.52 0.44,0.1 0.88,0.15 1.34,0.15 1.08,0 1.89,-0.2 2.45,-0.61 0.56,-0.41 0.84,-0.94 0.84,-1.6z"/>
  <path id="_5" class="fil9" d="M182.06 14.05l0 4.41 3.2 0 0 3.01 -3.2 0 0 10.13c0,0.41 0.05,0.75 0.13,1.01 0.09,0.26 0.22,0.45 0.39,0.59 0.17,0.14 0.37,0.24 0.6,0.29 0.22,0.05 0.48,0.08 0.76,0.08 0.28,0 0.55,-0.03 0.81,-0.07 0.26,-0.03 0.47,-0.07 0.61,-0.11l0 3.16c-0.32,0.09 -0.7,0.17 -1.13,0.26 -0.43,0.08 -0.95,0.13 -1.55,0.13 -0.67,0 -1.3,-0.1 -1.87,-0.27 -0.58,-0.19 -1.07,-0.47 -1.49,-0.88 -0.42,-0.4 -0.75,-0.93 -0.99,-1.57 -0.23,-0.65 -0.34,-1.44 -0.34,-2.38l0 -10.37 -2.99 0 0 -3.01 2.99 0 0 -4.41 4.07 0z"/>
  <path id="_6" class="fil9" d="M197.87 22.18c-0.27,-0.04 -0.54,-0.08 -0.82,-0.1 -0.27,-0.02 -0.55,-0.03 -0.84,-0.03 -0.98,0 -1.78,0.18 -2.4,0.57 -0.61,0.38 -1.07,0.9 -1.38,1.57l0 12.41 -4.07 0 0 -18.14 3.89 0 0.1 2.03c0.46,-0.74 1.03,-1.32 1.7,-1.74 0.68,-0.42 1.47,-0.63 2.39,-0.63 0.24,0 0.5,0.03 0.8,0.08 0.29,0.05 0.51,0.1 0.64,0.16l-0.01 3.82z"/>
  <path id="_7" class="fil9" d="M207.09 30.76l3.68 -12.3 4.35 0 -7.21 20.88c-0.17,0.47 -0.39,0.96 -0.67,1.49 -0.26,0.53 -0.63,1.03 -1.07,1.48 -0.44,0.46 -0.97,0.85 -1.62,1.16 -0.63,0.3 -1.39,0.45 -2.27,0.45 -0.35,0 -0.7,-0.03 -1.03,-0.09 -0.35,-0.06 -0.66,-0.13 -0.94,-0.2l0 -3.16c0.11,0.02 0.24,0.04 0.4,0.04 0.16,0.01 0.29,0.01 0.38,0.01 0.5,0 0.94,-0.04 1.31,-0.12 0.37,-0.09 0.7,-0.23 0.98,-0.43 0.28,-0.19 0.52,-0.44 0.72,-0.75 0.2,-0.3 0.39,-0.69 0.54,-1.15l0.58 -1.56 -6.36 -18.05 4.39 0 3.84 12.3z"/>
  <path id="_8" class="fil9" d="M225.24 27.36c0,-1.32 0.2,-2.54 0.58,-3.66 0.39,-1.13 0.94,-2.1 1.66,-2.93 0.73,-0.82 1.6,-1.47 2.64,-1.95 1.04,-0.46 2.22,-0.7 3.54,-0.7 1.33,0 2.52,0.24 3.57,0.7 1.05,0.48 1.94,1.13 2.66,1.95 0.72,0.83 1.27,1.8 1.65,2.93 0.38,1.12 0.57,2.34 0.57,3.66l0 0.35c0,1.32 -0.19,2.55 -0.57,3.68 -0.38,1.12 -0.93,2.1 -1.65,2.92 -0.72,0.82 -1.61,1.46 -2.65,1.93 -1.05,0.46 -2.23,0.7 -3.55,0.7 -1.32,0 -2.52,-0.24 -3.56,-0.7 -1.04,-0.47 -1.92,-1.11 -2.65,-1.93 -0.72,-0.82 -1.27,-1.8 -1.66,-2.92 -0.38,-1.13 -0.58,-2.36 -0.58,-3.68l0 -0.35zm4.08 0.35c0,0.82 0.08,1.59 0.25,2.32 0.17,0.72 0.43,1.36 0.79,1.9 0.36,0.54 0.81,0.97 1.36,1.28 0.55,0.32 1.21,0.47 1.97,0.47 0.75,0 1.4,-0.15 1.95,-0.47 0.56,-0.31 1.01,-0.74 1.37,-1.28 0.35,-0.54 0.61,-1.18 0.78,-1.9 0.18,-0.73 0.26,-1.5 0.26,-2.32l0 -0.35c0,-0.8 -0.08,-1.57 -0.26,-2.29 -0.17,-0.72 -0.43,-1.35 -0.8,-1.89 -0.35,-0.54 -0.81,-0.98 -1.36,-1.3 -0.55,-0.33 -1.21,-0.49 -1.97,-0.49 -0.76,0 -1.41,0.16 -1.95,0.49 -0.55,0.32 -0.99,0.76 -1.35,1.3 -0.36,0.54 -0.62,1.17 -0.79,1.89 -0.17,0.72 -0.25,1.49 -0.25,2.29l0 0.35z"/>
  <path id="_9" class="fil9" d="M246.99 36.6l0 -15.13 -2.77 0 0 -3.01 2.77 0 0 -1.71c0,-1.01 0.14,-1.9 0.44,-2.69 0.3,-0.77 0.72,-1.43 1.27,-1.95 0.55,-0.53 1.21,-0.93 2,-1.21 0.79,-0.27 1.68,-0.41 2.66,-0.41 0.39,0 0.78,0.03 1.16,0.09 0.39,0.06 0.76,0.13 1.12,0.22l-0.11 3.18c-0.22,-0.04 -0.46,-0.08 -0.72,-0.1 -0.26,-0.02 -0.54,-0.03 -0.83,-0.03 -0.94,0 -1.66,0.24 -2.16,0.73 -0.51,0.5 -0.76,1.22 -0.76,2.17l0 1.71 3.69 0 0 3.01 -3.69 0 0 15.13 -4.07 0z"/>
  <polygon id="_10" class="fil9" points="280.74,26.25 270.91,26.25 270.91,36.6 266.67,36.6 266.67,12.19 282.18,12.19 282.18,15.61 270.91,15.61 270.91,22.87 280.74,22.87 "/>
  <path id="_11" class="fil9" d="M284.02 27.36c0,-1.32 0.19,-2.54 0.58,-3.66 0.38,-1.13 0.94,-2.1 1.66,-2.93 0.72,-0.82 1.59,-1.47 2.64,-1.95 1.04,-0.46 2.22,-0.7 3.53,-0.7 1.34,0 2.53,0.24 3.57,0.7 1.06,0.48 1.94,1.13 2.66,1.95 0.72,0.83 1.27,1.8 1.65,2.93 0.38,1.12 0.57,2.34 0.57,3.66l0 0.35c0,1.32 -0.19,2.55 -0.57,3.68 -0.38,1.12 -0.93,2.1 -1.65,2.92 -0.72,0.82 -1.6,1.46 -2.65,1.93 -1.04,0.46 -2.23,0.7 -3.54,0.7 -1.33,0 -2.52,-0.24 -3.57,-0.7 -1.04,-0.47 -1.92,-1.11 -2.64,-1.93 -0.72,-0.82 -1.28,-1.8 -1.66,-2.92 -0.39,-1.13 -0.58,-2.36 -0.58,-3.68l0 -0.35zm4.07 0.35c0,0.82 0.09,1.59 0.25,2.32 0.17,0.72 0.44,1.36 0.79,1.9 0.36,0.54 0.81,0.97 1.37,1.28 0.55,0.32 1.21,0.47 1.97,0.47 0.75,0 1.4,-0.15 1.95,-0.47 0.55,-0.31 1.01,-0.74 1.36,-1.28 0.35,-0.54 0.61,-1.18 0.78,-1.9 0.18,-0.73 0.27,-1.5 0.27,-2.32l0 -0.35c0,-0.8 -0.09,-1.57 -0.27,-2.29 -0.17,-0.72 -0.43,-1.35 -0.79,-1.89 -0.36,-0.54 -0.81,-0.98 -1.37,-1.3 -0.55,-0.33 -1.21,-0.49 -1.97,-0.49 -0.76,0 -1.41,0.16 -1.95,0.49 -0.54,0.32 -0.99,0.76 -1.35,1.3 -0.35,0.54 -0.62,1.17 -0.79,1.89 -0.16,0.72 -0.25,1.49 -0.25,2.29l0 0.35z"/>
  <path id="_12" class="fil9" d="M313.82 22.18c-0.26,-0.04 -0.54,-0.08 -0.81,-0.1 -0.27,-0.02 -0.55,-0.03 -0.85,-0.03 -0.98,0 -1.78,0.18 -2.39,0.57 -0.62,0.38 -1.07,0.9 -1.38,1.57l0 12.41 -4.07 0 0 -18.14 3.89 0 0.1 2.03c0.46,-0.74 1.03,-1.32 1.7,-1.74 0.68,-0.42 1.47,-0.63 2.39,-0.63 0.23,0 0.5,0.03 0.8,0.08 0.29,0.05 0.51,0.1 0.64,0.16l-0.02 3.82z"/>
  <path id="_13" class="fil9" d="M324.07 36.94c-1.34,0 -2.55,-0.23 -3.62,-0.68 -1.08,-0.45 -1.99,-1.06 -2.74,-1.84 -0.74,-0.79 -1.32,-1.71 -1.72,-2.78 -0.41,-1.08 -0.61,-2.24 -0.61,-3.48l0 -0.67c0,-1.43 0.22,-2.72 0.65,-3.88 0.42,-1.15 1,-2.14 1.74,-2.95 0.73,-0.81 1.6,-1.44 2.6,-1.88 1.01,-0.44 2.08,-0.66 3.23,-0.66 1.32,0 2.46,0.22 3.44,0.66 0.97,0.44 1.78,1.06 2.41,1.86 0.64,0.79 1.12,1.74 1.43,2.83 0.31,1.09 0.46,2.3 0.46,3.61l0 1.74 -11.85 0c0.06,0.71 0.21,1.35 0.45,1.94 0.24,0.6 0.57,1.11 0.98,1.53 0.41,0.44 0.9,0.78 1.46,1.02 0.57,0.25 1.21,0.37 1.93,0.37 1,0 1.87,-0.2 2.62,-0.6 0.74,-0.41 1.39,-0.96 1.94,-1.66l2.19 2.09c-0.29,0.44 -0.65,0.86 -1.08,1.27 -0.43,0.4 -0.94,0.77 -1.51,1.09 -0.58,0.32 -1.23,0.57 -1.95,0.77 -0.73,0.19 -1.54,0.3 -2.45,0.3zm-0.49 -15.55c-1.12,0 -2.02,0.39 -2.7,1.18 -0.69,0.78 -1.13,1.87 -1.32,3.26l7.76 0 0 -0.3c-0.03,-0.53 -0.12,-1.05 -0.26,-1.55 -0.14,-0.49 -0.35,-0.94 -0.64,-1.32 -0.29,-0.38 -0.67,-0.69 -1.14,-0.92 -0.46,-0.23 -1.03,-0.35 -1.7,-0.35z"/>
  <path id="_14" class="fil9" d="M338.84 36.6l-4.07 0 0 -18.14 4.07 0 0 18.14zm-4.33 -22.85c0,-0.63 0.21,-1.15 0.6,-1.56 0.4,-0.42 0.97,-0.62 1.71,-0.62 0.73,0 1.3,0.2 1.7,0.62 0.41,0.41 0.61,0.93 0.61,1.56 0,0.61 -0.2,1.13 -0.61,1.53 -0.4,0.41 -0.97,0.61 -1.7,0.61 -0.74,0 -1.31,-0.2 -1.71,-0.61 -0.39,-0.4 -0.6,-0.92 -0.6,-1.53z"/>
  <path id="_15" class="fil9" d="M342.56 27.4c0,-1.38 0.17,-2.64 0.5,-3.78 0.34,-1.14 0.82,-2.12 1.46,-2.93 0.63,-0.82 1.39,-1.45 2.28,-1.89 0.9,-0.46 1.91,-0.68 3.02,-0.68 1.1,0 2.04,0.19 2.83,0.57 0.8,0.37 1.48,0.9 2.05,1.59l0.19 -1.82 3.66 0 0 17.63c0,1.22 -0.2,2.3 -0.6,3.25 -0.4,0.95 -0.96,1.76 -1.68,2.4 -0.73,0.65 -1.59,1.15 -2.6,1.49 -1.02,0.34 -2.12,0.51 -3.33,0.51 -0.5,0 -1.06,-0.05 -1.67,-0.16 -0.62,-0.1 -1.24,-0.28 -1.87,-0.52 -0.62,-0.24 -1.22,-0.55 -1.79,-0.93 -0.57,-0.38 -1.06,-0.85 -1.46,-1.39l1.93 -2.45c0.67,0.8 1.4,1.36 2.18,1.71 0.79,0.35 1.61,0.52 2.45,0.52 1.35,0 2.41,-0.36 3.2,-1.1 0.78,-0.73 1.17,-1.8 1.17,-3.22l0 -1.23c-0.57,0.64 -1.24,1.12 -2.01,1.46 -0.77,0.33 -1.66,0.51 -2.68,0.51 -1.11,0 -2.11,-0.24 -3,-0.7 -0.88,-0.47 -1.64,-1.11 -2.27,-1.92 -0.64,-0.82 -1.12,-1.78 -1.46,-2.91 -0.33,-1.12 -0.5,-2.34 -0.5,-3.66l0 -0.35zm4.06 0.35c0,0.8 0.08,1.56 0.24,2.27 0.16,0.71 0.42,1.33 0.76,1.87 0.35,0.54 0.79,0.95 1.32,1.26 0.52,0.31 1.15,0.46 1.89,0.46 0.91,0 1.66,-0.19 2.24,-0.58 0.59,-0.38 1.06,-0.89 1.41,-1.53l0 -7.98c-0.35,-0.63 -0.83,-1.14 -1.41,-1.51 -0.59,-0.36 -1.33,-0.55 -2.21,-0.55 -0.73,0 -1.38,0.16 -1.91,0.47 -0.54,0.31 -0.98,0.73 -1.31,1.27 -0.35,0.54 -0.6,1.17 -0.77,1.89 -0.17,0.72 -0.25,1.49 -0.25,2.31l0 0.35z"/>
  <path id="_16" class="fil9" d="M366.51 18.46l0.12 2.09c0.64,-0.77 1.41,-1.37 2.3,-1.79 0.9,-0.42 1.89,-0.64 2.99,-0.64 0.87,0 1.66,0.12 2.37,0.36 0.7,0.24 1.31,0.63 1.81,1.17 0.51,0.54 0.9,1.23 1.17,2.09 0.28,0.87 0.41,1.91 0.41,3.14l0 11.72 -4.07 0 0 -11.76c0,-0.62 -0.07,-1.15 -0.21,-1.58 -0.14,-0.43 -0.35,-0.78 -0.61,-1.05 -0.27,-0.27 -0.6,-0.46 -1,-0.58 -0.4,-0.11 -0.85,-0.17 -1.37,-0.17 -0.83,0 -1.57,0.2 -2.18,0.6 -0.63,0.4 -1.12,0.95 -1.49,1.63l0 12.91 -4.08 0 0 -18.14 3.84 0z"/>
  <path id="_17" class="fil9" d="M404.44 30.92l-9.46 0 -1.98 5.68 -4.4 0 9.22 -24.41 3.8 0 9.24 24.41 -4.43 0 -1.99 -5.68zm-8.27 -3.43l7.08 0 -3.54 -10.12 -3.54 10.12z"/>
  <path id="_18" class="fil9" d="M414.66 36.6l0 -15.13 -2.76 0 0 -3.01 2.76 0 0 -1.71c0,-1.01 0.15,-1.9 0.45,-2.69 0.3,-0.77 0.71,-1.43 1.26,-1.95 0.55,-0.53 1.22,-0.93 2.01,-1.21 0.79,-0.27 1.67,-0.41 2.66,-0.41 0.39,0 0.78,0.03 1.16,0.09 0.39,0.06 0.76,0.13 1.11,0.22l-0.1 3.18c-0.22,-0.04 -0.46,-0.08 -0.73,-0.1 -0.26,-0.02 -0.53,-0.03 -0.83,-0.03 -0.93,0 -1.65,0.24 -2.16,0.73 -0.5,0.5 -0.75,1.22 -0.75,2.17l0 1.71 3.69 0 0 3.01 -3.69 0 0 15.13 -4.08 0z"/>
  <path id="_19" class="fil9" d="M426.83 36.6l0 -15.13 -2.76 0 0 -3.01 2.76 0 0 -1.71c0,-1.01 0.15,-1.9 0.45,-2.69 0.3,-0.77 0.72,-1.43 1.26,-1.95 0.55,-0.53 1.22,-0.93 2.01,-1.21 0.79,-0.27 1.67,-0.41 2.66,-0.41 0.39,0 0.78,0.03 1.16,0.09 0.39,0.06 0.76,0.13 1.12,0.22l-0.11 3.18c-0.22,-0.04 -0.46,-0.08 -0.72,-0.1 -0.27,-0.02 -0.54,-0.03 -0.83,-0.03 -0.94,0 -1.66,0.24 -2.17,0.73 -0.5,0.5 -0.75,1.22 -0.75,2.17l0 1.71 3.69 0 0 3.01 -3.69 0 0 15.13 -4.08 0z"/>
  <path id="_20" class="fil9" d="M448.41 36.6c-0.11,-0.21 -0.2,-0.47 -0.28,-0.76 -0.07,-0.29 -0.13,-0.6 -0.19,-0.94 -0.27,0.28 -0.56,0.55 -0.9,0.79 -0.33,0.25 -0.69,0.46 -1.08,0.65 -0.4,0.18 -0.83,0.33 -1.3,0.44 -0.46,0.1 -0.95,0.16 -1.48,0.16 -0.9,0 -1.74,-0.14 -2.5,-0.42 -0.76,-0.27 -1.41,-0.65 -1.95,-1.13 -0.54,-0.49 -0.97,-1.06 -1.28,-1.73 -0.3,-0.66 -0.45,-1.37 -0.45,-2.14 0,-0.98 0.18,-1.83 0.55,-2.58 0.37,-0.75 0.91,-1.38 1.61,-1.88 0.7,-0.5 1.57,-0.89 2.59,-1.15 1.02,-0.26 2.19,-0.4 3.49,-0.4l2.57 0 0 -1.19c0,-0.93 -0.27,-1.68 -0.79,-2.25 -0.52,-0.56 -1.33,-0.85 -2.4,-0.85 -0.48,0 -0.91,0.07 -1.31,0.2 -0.39,0.13 -0.72,0.3 -0.99,0.52 -0.28,0.21 -0.49,0.47 -0.64,0.78 -0.15,0.3 -0.23,0.63 -0.23,0.97l-4.07 0c0,-0.72 0.18,-1.41 0.53,-2.07 0.35,-0.67 0.85,-1.26 1.5,-1.78 0.65,-0.52 1.43,-0.94 2.35,-1.25 0.92,-0.31 1.95,-0.47 3.1,-0.47 1.01,0 1.96,0.13 2.81,0.4 0.86,0.26 1.61,0.65 2.24,1.17 0.62,0.52 1.11,1.17 1.45,1.94 0.35,0.78 0.52,1.69 0.52,2.73l0 8.05c0,1.63 0.23,2.93 0.69,3.9l0 0.29 -4.16 0zm-4.47 -2.94c0.47,0 0.9,-0.05 1.31,-0.18 0.41,-0.12 0.78,-0.29 1.11,-0.49 0.33,-0.2 0.62,-0.43 0.86,-0.69 0.25,-0.26 0.44,-0.53 0.59,-0.8l0 -3.42 -2.2 0c-1.51,0 -2.64,0.27 -3.4,0.79 -0.76,0.52 -1.14,1.27 -1.14,2.23 0,0.36 0.06,0.71 0.18,1.02 0.12,0.31 0.31,0.59 0.56,0.82 0.24,0.22 0.54,0.4 0.89,0.53 0.36,0.13 0.77,0.19 1.24,0.19z"/>
  <path id="_21" class="fil9" d="M460.48 36.6l-4.07 0 0 -18.14 4.07 0 0 18.14zm-4.33 -22.85c0,-0.63 0.21,-1.15 0.6,-1.56 0.4,-0.42 0.97,-0.62 1.71,-0.62 0.73,0 1.3,0.2 1.7,0.62 0.41,0.41 0.61,0.93 0.61,1.56 0,0.61 -0.2,1.13 -0.61,1.53 -0.4,0.41 -0.97,0.61 -1.7,0.61 -0.74,0 -1.31,-0.2 -1.71,-0.61 -0.39,-0.4 -0.6,-0.92 -0.6,-1.53z"/>
  <path id="_22" class="fil9" d="M474.41 22.18c-0.26,-0.04 -0.54,-0.08 -0.81,-0.1 -0.27,-0.02 -0.56,-0.03 -0.85,-0.03 -0.98,0 -1.78,0.18 -2.4,0.57 -0.61,0.38 -1.07,0.9 -1.37,1.57l0 12.41 -4.08 0 0 -18.14 3.9 0 0.1 2.03c0.46,-0.74 1.02,-1.32 1.7,-1.74 0.67,-0.42 1.47,-0.63 2.38,-0.63 0.24,0 0.51,0.03 0.81,0.08 0.29,0.05 0.5,0.1 0.64,0.16l-0.02 3.82z"/>
  <path id="_23" class="fil9" d="M487.15 31.67c0,-0.29 -0.05,-0.56 -0.14,-0.81 -0.1,-0.25 -0.29,-0.49 -0.56,-0.71 -0.28,-0.22 -0.68,-0.42 -1.19,-0.61 -0.5,-0.19 -1.17,-0.37 -1.98,-0.54 -0.97,-0.2 -1.86,-0.45 -2.66,-0.75 -0.8,-0.3 -1.48,-0.67 -2.05,-1.1 -0.57,-0.43 -1.02,-0.94 -1.33,-1.52 -0.32,-0.58 -0.48,-1.25 -0.48,-2.01 0,-0.74 0.16,-1.44 0.48,-2.1 0.33,-0.66 0.79,-1.25 1.4,-1.75 0.61,-0.51 1.35,-0.91 2.22,-1.2 0.86,-0.3 1.83,-0.45 2.91,-0.45 1.12,0 2.14,0.15 3.04,0.45 0.9,0.29 1.66,0.7 2.28,1.22 0.63,0.52 1.11,1.13 1.44,1.84 0.33,0.7 0.49,1.46 0.49,2.28l-4.07 0c0,-0.35 -0.07,-0.68 -0.2,-1.02 -0.14,-0.33 -0.34,-0.62 -0.6,-0.88 -0.27,-0.26 -0.61,-0.46 -1,-0.61 -0.4,-0.15 -0.86,-0.22 -1.38,-0.22 -0.52,0 -0.97,0.06 -1.35,0.19 -0.38,0.13 -0.69,0.29 -0.94,0.5 -0.26,0.2 -0.44,0.45 -0.56,0.72 -0.13,0.27 -0.19,0.56 -0.19,0.86 0,0.31 0.05,0.58 0.17,0.81 0.11,0.24 0.31,0.45 0.59,0.64 0.29,0.18 0.67,0.36 1.15,0.52 0.48,0.17 1.09,0.32 1.81,0.48 1.05,0.23 1.99,0.49 2.83,0.79 0.83,0.3 1.53,0.67 2.11,1.11 0.57,0.43 1.01,0.95 1.32,1.54 0.29,0.59 0.45,1.3 0.45,2.11 0,0.8 -0.17,1.54 -0.52,2.21 -0.35,0.67 -0.84,1.26 -1.48,1.74 -0.65,0.48 -1.42,0.86 -2.33,1.13 -0.9,0.27 -1.91,0.41 -3.01,0.41 -1.25,0 -2.34,-0.18 -3.3,-0.54 -0.96,-0.35 -1.76,-0.81 -2.4,-1.38 -0.66,-0.57 -1.14,-1.21 -1.47,-1.94 -0.33,-0.72 -0.5,-1.45 -0.5,-2.2l3.96 0c0.03,0.56 0.16,1.03 0.39,1.41 0.22,0.38 0.5,0.69 0.85,0.92 0.34,0.24 0.74,0.41 1.17,0.52 0.44,0.1 0.88,0.15 1.34,0.15 1.08,0 1.89,-0.2 2.45,-0.61 0.56,-0.41 0.84,-0.94 0.84,-1.6z"/>
  <path class="fil10" d="M100.74 64.98l-6.31 0 0 9.03 -1.85 0 0 -21.7 7.05 0c1.14,0 2.15,0.14 3.06,0.42 0.91,0.28 1.69,0.69 2.33,1.23 0.64,0.54 1.13,1.21 1.47,2 0.35,0.8 0.52,1.71 0.52,2.74 0,0.72 -0.11,1.39 -0.33,2.02 -0.22,0.63 -0.53,1.2 -0.92,1.71 -0.4,0.51 -0.87,0.94 -1.43,1.31 -0.55,0.37 -1.16,0.65 -1.82,0.85l5.42 9.23 0 0.19 -1.95 0 -5.24 -9.03zm-6.31 -1.57l5.62 0c0.84,0 1.59,-0.12 2.23,-0.38 0.64,-0.26 1.17,-0.61 1.6,-1.04 0.43,-0.43 0.75,-0.93 0.96,-1.5 0.21,-0.57 0.32,-1.17 0.32,-1.79 0,-0.74 -0.12,-1.41 -0.35,-2 -0.24,-0.6 -0.6,-1.11 -1.07,-1.53 -0.48,-0.41 -1.05,-0.73 -1.74,-0.96 -0.68,-0.22 -1.47,-0.33 -2.37,-0.33l-5.2 0 0 9.53z"/>
  <path id="_1_0" class="fil10" d="M117.83 74.31c-1.05,0 -2.02,-0.2 -2.91,-0.59 -0.88,-0.39 -1.64,-0.94 -2.28,-1.64 -0.64,-0.7 -1.14,-1.53 -1.5,-2.5 -0.36,-0.96 -0.54,-2.02 -0.54,-3.17l0 -0.64c0,-1.24 0.19,-2.37 0.56,-3.38 0.37,-1 0.88,-1.86 1.51,-2.58 0.64,-0.7 1.37,-1.25 2.2,-1.64 0.83,-0.39 1.71,-0.58 2.63,-0.58 1.02,0 1.93,0.18 2.73,0.55 0.8,0.37 1.46,0.88 2,1.54 0.55,0.65 0.95,1.43 1.23,2.34 0.28,0.9 0.42,1.89 0.42,2.96l0 1.09 -11.51 0 0 0.34c0,0.89 0.14,1.72 0.41,2.5 0.27,0.78 0.64,1.45 1.13,2.03 0.49,0.58 1.07,1.03 1.74,1.37 0.68,0.33 1.43,0.49 2.25,0.49 0.96,0 1.8,-0.17 2.53,-0.52 0.73,-0.35 1.39,-0.9 1.99,-1.67l1.12 0.85c-0.27,0.39 -0.58,0.75 -0.93,1.11 -0.36,0.34 -0.76,0.65 -1.23,0.9 -0.47,0.26 -0.99,0.46 -1.58,0.62 -0.59,0.14 -1.25,0.22 -1.97,0.22zm-0.33 -15.2c-0.68,0 -1.3,0.13 -1.88,0.38 -0.57,0.26 -1.08,0.63 -1.52,1.11 -0.44,0.48 -0.81,1.05 -1.09,1.72 -0.28,0.67 -0.47,1.41 -0.57,2.23l9.66 0 0 -0.19c-0.01,-0.68 -0.12,-1.34 -0.32,-1.97 -0.2,-0.63 -0.49,-1.19 -0.87,-1.67 -0.39,-0.49 -0.86,-0.88 -1.42,-1.17 -0.57,-0.3 -1.23,-0.44 -1.99,-0.44z"/>
  <path id="_2_1" class="fil10" d="M140.32 66.11c0,1.22 -0.14,2.32 -0.41,3.33 -0.27,1 -0.67,1.86 -1.2,2.58 -0.53,0.72 -1.17,1.28 -1.93,1.68 -0.76,0.41 -1.63,0.61 -2.6,0.61 -1.15,0 -2.15,-0.21 -2.99,-0.62 -0.84,-0.41 -1.53,-0.98 -2.08,-1.7l0 8.22 -1.77 0 0 -22.32 1.65 0 0.09 2.27c0.55,-0.8 1.24,-1.43 2.07,-1.89 0.84,-0.46 1.83,-0.68 2.98,-0.68 0.99,0 1.87,0.19 2.63,0.58 0.77,0.39 1.42,0.94 1.95,1.65 0.53,0.72 0.93,1.58 1.2,2.59 0.27,1 0.41,2.14 0.41,3.39l0 0.31zm-1.79 -0.31c0,-0.94 -0.1,-1.81 -0.29,-2.62 -0.19,-0.82 -0.49,-1.52 -0.88,-2.12 -0.39,-0.6 -0.89,-1.06 -1.5,-1.41 -0.6,-0.34 -1.31,-0.51 -2.13,-0.51 -0.64,0 -1.21,0.08 -1.71,0.25 -0.5,0.17 -0.93,0.4 -1.3,0.68 -0.38,0.28 -0.7,0.61 -0.96,0.98 -0.26,0.38 -0.48,0.77 -0.65,1.17l0 7.74c0.19,0.4 0.43,0.78 0.71,1.13 0.29,0.35 0.62,0.65 1,0.9 0.38,0.26 0.82,0.45 1.3,0.6 0.49,0.14 1.04,0.21 1.64,0.21 0.82,0 1.52,-0.17 2.12,-0.51 0.59,-0.35 1.09,-0.82 1.48,-1.42 0.39,-0.6 0.69,-1.31 0.88,-2.12 0.19,-0.81 0.29,-1.69 0.29,-2.64l0 -0.31z"/>
  <path id="_3_2" class="fil10" d="M154.64 71.97c-0.51,0.73 -1.18,1.31 -2.02,1.72 -0.84,0.41 -1.88,0.62 -3.12,0.62 -0.8,0 -1.52,-0.11 -2.16,-0.34 -0.65,-0.22 -1.21,-0.58 -1.67,-1.06 -0.47,-0.49 -0.83,-1.12 -1.08,-1.89 -0.26,-0.77 -0.38,-1.7 -0.38,-2.81l0 -10.32 1.77 0 0 10.35c0,0.87 0.1,1.59 0.3,2.16 0.2,0.58 0.46,1.04 0.8,1.39 0.34,0.35 0.74,0.6 1.19,0.75 0.45,0.14 0.93,0.22 1.43,0.22 0.72,0 1.35,-0.08 1.9,-0.24 0.55,-0.16 1.02,-0.38 1.41,-0.67 0.4,-0.29 0.73,-0.63 0.99,-1.01 0.26,-0.39 0.46,-0.82 0.61,-1.29l0 -11.66 1.79 0 0 16.12 -1.73 0 -0.03 -2.04z"/>
  <path id="_4_3" class="fil10" d="M174.01 66.11c0,1.22 -0.14,2.32 -0.41,3.33 -0.27,1 -0.67,1.86 -1.2,2.58 -0.52,0.72 -1.17,1.28 -1.93,1.68 -0.77,0.41 -1.64,0.61 -2.61,0.61 -1.19,0 -2.19,-0.22 -3.03,-0.67 -0.84,-0.45 -1.54,-1.06 -2.07,-1.84l-0.08 2.21 -1.66 0 0 -22.89 1.77 0 0 9.11c0.54,-0.84 1.22,-1.48 2.04,-1.95 0.82,-0.46 1.83,-0.69 3,-0.69 0.98,0 1.85,0.19 2.62,0.58 0.76,0.39 1.41,0.94 1.94,1.65 0.53,0.72 0.94,1.58 1.21,2.59 0.27,1 0.41,2.14 0.41,3.39l0 0.31zm-1.79 -0.31c0,-0.94 -0.08,-1.81 -0.26,-2.62 -0.19,-0.82 -0.47,-1.52 -0.85,-2.12 -0.38,-0.6 -0.87,-1.06 -1.47,-1.41 -0.59,-0.34 -1.3,-0.51 -2.14,-0.51 -0.68,0 -1.27,0.09 -1.79,0.27 -0.52,0.19 -0.96,0.43 -1.34,0.74 -0.38,0.31 -0.69,0.66 -0.95,1.06 -0.26,0.39 -0.47,0.81 -0.63,1.24l0 7.27c0.19,0.42 0.42,0.83 0.71,1.2 0.28,0.37 0.62,0.69 1.01,0.96 0.38,0.28 0.82,0.49 1.33,0.64 0.5,0.16 1.06,0.24 1.69,0.24 0.81,0 1.5,-0.17 2.09,-0.51 0.59,-0.34 1.08,-0.8 1.47,-1.4 0.39,-0.59 0.67,-1.3 0.86,-2.11 0.18,-0.81 0.27,-1.68 0.27,-2.63l0 -0.31z"/>
  <polygon id="_5_4" class="fil10" points="179.94,74.01 178.15,74.01 178.15,51.12 179.94,51.12 "/>
  <path id="_6_5" class="fil10" d="M186.78 74.01l-1.79 0 0 -16.12 1.79 0 0 16.12zm-2.1 -20.79c0,-0.33 0.11,-0.62 0.33,-0.85 0.22,-0.24 0.52,-0.35 0.89,-0.35 0.38,0 0.68,0.11 0.9,0.35 0.23,0.23 0.34,0.52 0.34,0.85 0,0.34 -0.11,0.62 -0.34,0.85 -0.22,0.23 -0.52,0.34 -0.9,0.34 -0.37,0 -0.67,-0.11 -0.89,-0.34 -0.22,-0.23 -0.33,-0.51 -0.33,-0.85z"/>
  <path id="_7_6" class="fil10" d="M197.59 72.8c0.56,0 1.11,-0.08 1.63,-0.24 0.52,-0.17 0.99,-0.41 1.39,-0.73 0.41,-0.31 0.75,-0.7 1.01,-1.17 0.26,-0.47 0.41,-1.01 0.45,-1.63l1.72 0c-0.04,0.77 -0.24,1.48 -0.58,2.12 -0.34,0.64 -0.79,1.2 -1.35,1.67 -0.56,0.46 -1.21,0.83 -1.95,1.09 -0.74,0.27 -1.51,0.4 -2.32,0.4 -1.14,0 -2.13,-0.21 -2.98,-0.62 -0.86,-0.41 -1.57,-0.98 -2.15,-1.7 -0.59,-0.73 -1.03,-1.58 -1.32,-2.56 -0.29,-0.98 -0.44,-2.04 -0.44,-3.17l0 -0.63c0,-1.13 0.15,-2.18 0.44,-3.16 0.29,-0.98 0.73,-1.83 1.31,-2.55 0.57,-0.72 1.29,-1.29 2.15,-1.71 0.86,-0.42 1.85,-0.62 2.97,-0.62 0.87,0 1.67,0.13 2.41,0.4 0.74,0.27 1.39,0.65 1.94,1.15 0.55,0.5 0.99,1.1 1.31,1.81 0.33,0.71 0.52,1.5 0.56,2.37l-1.72 0c-0.04,-0.65 -0.18,-1.24 -0.42,-1.75 -0.25,-0.52 -0.57,-0.96 -0.97,-1.33 -0.4,-0.37 -0.87,-0.64 -1.4,-0.84 -0.53,-0.2 -1.1,-0.29 -1.71,-0.29 -0.92,0 -1.7,0.17 -2.34,0.54 -0.64,0.35 -1.17,0.84 -1.58,1.44 -0.41,0.61 -0.7,1.3 -0.88,2.09 -0.19,0.78 -0.28,1.6 -0.28,2.45l0 0.63c0,0.86 0.09,1.69 0.28,2.48 0.18,0.79 0.47,1.49 0.88,2.09 0.4,0.6 0.93,1.08 1.58,1.44 0.65,0.36 1.43,0.53 2.36,0.53z"/>
  <path id="_8_7" class="fil10" d="M213.79 65.71c0,-1.17 0.17,-2.25 0.51,-3.25 0.34,-0.99 0.83,-1.85 1.45,-2.57 0.63,-0.72 1.39,-1.28 2.27,-1.69 0.89,-0.41 1.87,-0.61 2.95,-0.61 1.1,0 2.1,0.2 2.99,0.61 0.89,0.41 1.64,0.97 2.27,1.69 0.63,0.72 1.11,1.58 1.44,2.57 0.35,1 0.51,2.08 0.51,3.25l0 0.49c0,1.17 -0.16,2.26 -0.51,3.25 -0.33,0.99 -0.81,1.85 -1.44,2.57 -0.63,0.72 -1.38,1.28 -2.26,1.68 -0.89,0.41 -1.88,0.61 -2.97,0.61 -1.09,0 -2.08,-0.2 -2.96,-0.61 -0.89,-0.4 -1.65,-0.96 -2.28,-1.68 -0.63,-0.72 -1.12,-1.58 -1.46,-2.57 -0.34,-0.99 -0.51,-2.08 -0.51,-3.25l0 -0.49zm1.78 0.49c0,0.89 0.13,1.73 0.36,2.53 0.24,0.8 0.59,1.5 1.05,2.1 0.46,0.6 1.02,1.08 1.7,1.44 0.67,0.36 1.45,0.53 2.32,0.53 0.88,0 1.64,-0.17 2.32,-0.53 0.67,-0.36 1.23,-0.84 1.69,-1.44 0.46,-0.6 0.8,-1.3 1.04,-2.1 0.24,-0.8 0.36,-1.64 0.36,-2.53l0 -0.49c0,-0.87 -0.12,-1.69 -0.36,-2.5 -0.24,-0.8 -0.58,-1.5 -1.04,-2.1 -0.46,-0.61 -1.03,-1.09 -1.71,-1.46 -0.68,-0.36 -1.45,-0.54 -2.33,-0.54 -0.86,0 -1.63,0.18 -2.3,0.54 -0.68,0.37 -1.23,0.85 -1.69,1.46 -0.46,0.6 -0.81,1.3 -1.05,2.1 -0.23,0.81 -0.36,1.63 -0.36,2.5l0 0.49z"/>
  <path id="_9_8" class="fil10" d="M233.14 74.01l0 -14.66 -2.66 0 0 -1.46 2.66 0 0 -2c0,-0.82 0.11,-1.54 0.33,-2.17 0.22,-0.64 0.53,-1.17 0.94,-1.6 0.42,-0.43 0.92,-0.76 1.5,-0.98 0.59,-0.22 1.26,-0.33 2,-0.33 0.31,0 0.62,0.02 0.95,0.06 0.32,0.04 0.64,0.1 0.95,0.19l-0.14 1.49c-0.25,-0.06 -0.5,-0.1 -0.75,-0.13 -0.26,-0.03 -0.55,-0.05 -0.87,-0.05 -0.99,0 -1.75,0.31 -2.3,0.92 -0.55,0.61 -0.82,1.48 -0.82,2.6l0 2 3.84 0 0 1.46 -3.84 0 0 14.66 -1.79 0z"/>
  <polygon id="_10_9" class="fil10" points="252.23,52.31 260.23,71.46 268.26,52.31 270.71,52.31 270.71,74.01 268.87,74.01 268.87,64.53 269.02,54.87 260.94,74.01 259.53,74.01 251.48,54.95 251.63,64.53 251.63,74.01 249.8,74.01 249.8,52.31 "/>
  <path id="_11_10" class="fil10" d="M285.97 74.01c-0.11,-0.28 -0.18,-0.62 -0.23,-1.02 -0.06,-0.4 -0.1,-0.81 -0.12,-1.23 -0.27,0.35 -0.59,0.67 -0.95,0.98 -0.37,0.31 -0.78,0.58 -1.24,0.81 -0.46,0.23 -0.95,0.41 -1.5,0.55 -0.55,0.14 -1.14,0.21 -1.78,0.21 -0.78,0 -1.49,-0.12 -2.13,-0.35 -0.65,-0.22 -1.19,-0.55 -1.64,-0.96 -0.46,-0.41 -0.81,-0.89 -1.06,-1.45 -0.24,-0.56 -0.37,-1.16 -0.37,-1.82 0,-0.78 0.17,-1.49 0.51,-2.12 0.34,-0.63 0.83,-1.17 1.46,-1.61 0.64,-0.44 1.41,-0.78 2.32,-1.01 0.91,-0.24 1.93,-0.35 3.06,-0.35l3.31 0 0 -1.84c0,-1.15 -0.36,-2.06 -1.07,-2.72 -0.71,-0.66 -1.74,-0.99 -3.11,-0.99 -0.62,0 -1.2,0.09 -1.72,0.26 -0.53,0.16 -0.98,0.4 -1.37,0.7 -0.38,0.29 -0.68,0.64 -0.89,1.03 -0.21,0.4 -0.32,0.81 -0.32,1.26l-1.79 -0.01c0,-0.61 0.15,-1.19 0.45,-1.76 0.3,-0.57 0.71,-1.07 1.26,-1.51 0.54,-0.45 1.19,-0.8 1.95,-1.07 0.76,-0.27 1.6,-0.4 2.52,-0.4 0.86,0 1.65,0.11 2.36,0.33 0.73,0.22 1.35,0.54 1.86,0.98 0.52,0.44 0.92,0.98 1.21,1.64 0.29,0.65 0.43,1.42 0.43,2.29l0 7.81c0,0.28 0.01,0.57 0.03,0.87 0.02,0.29 0.05,0.58 0.1,0.86 0.04,0.28 0.09,0.55 0.15,0.8 0.07,0.25 0.13,0.47 0.21,0.66l0 0.18 -1.9 0zm-5.61 -1.28c0.65,0 1.25,-0.08 1.8,-0.25 0.55,-0.16 1.05,-0.39 1.5,-0.68 0.44,-0.28 0.83,-0.62 1.16,-1 0.33,-0.39 0.59,-0.8 0.79,-1.25l0 -3.54 -3.06 0c-0.91,0 -1.73,0.08 -2.45,0.24 -0.72,0.17 -1.33,0.41 -1.83,0.71 -0.49,0.31 -0.87,0.68 -1.13,1.12 -0.27,0.45 -0.4,0.95 -0.4,1.5 0,0.44 0.08,0.85 0.25,1.24 0.18,0.38 0.41,0.71 0.72,0.99 0.32,0.29 0.7,0.51 1.15,0.67 0.44,0.17 0.95,0.25 1.5,0.25z"/>
  <polygon id="_12_11" class="fil10" points="294.13,74.01 292.34,74.01 292.34,51.12 294.13,51.12 "/>
  <path id="_13_12" class="fil10" d="M298.26 65.8c0,-1.25 0.15,-2.39 0.43,-3.39 0.29,-1.01 0.7,-1.87 1.24,-2.59 0.54,-0.71 1.19,-1.26 1.96,-1.65 0.77,-0.39 1.64,-0.58 2.6,-0.58 1.14,0 2.12,0.22 2.95,0.68 0.81,0.46 1.49,1.09 2.03,1.89l0 -9.04 1.77 0 0 22.89 -1.67 0 -0.07 -2.15c-0.54,0.77 -1.22,1.37 -2.05,1.8 -0.83,0.43 -1.83,0.65 -2.99,0.65 -0.95,0 -1.81,-0.2 -2.58,-0.61 -0.76,-0.4 -1.41,-0.96 -1.95,-1.68 -0.54,-0.72 -0.95,-1.58 -1.24,-2.58 -0.28,-1.01 -0.43,-2.11 -0.43,-3.33l0 -0.31zm1.81 0.31c0,0.95 0.09,1.82 0.28,2.63 0.19,0.81 0.47,1.52 0.86,2.11 0.39,0.6 0.88,1.06 1.47,1.4 0.59,0.34 1.29,0.51 2.11,0.51 0.61,0 1.16,-0.07 1.64,-0.22 0.5,-0.14 0.93,-0.34 1.32,-0.6 0.38,-0.26 0.71,-0.57 0.99,-0.93 0.29,-0.35 0.53,-0.74 0.73,-1.16l0 -7.57c-0.18,-0.41 -0.4,-0.8 -0.66,-1.17 -0.26,-0.38 -0.58,-0.72 -0.95,-1.01 -0.38,-0.3 -0.82,-0.53 -1.31,-0.7 -0.5,-0.18 -1.08,-0.26 -1.73,-0.26 -0.83,0 -1.54,0.17 -2.13,0.51 -0.6,0.35 -1.09,0.81 -1.48,1.41 -0.39,0.6 -0.67,1.3 -0.86,2.12 -0.19,0.81 -0.28,1.68 -0.28,2.62l0 0.31z"/>
  <path id="_14_13" class="fil10" d="M317.93 74.01l-1.79 0 0 -16.12 1.79 0 0 16.12zm-2.1 -20.79c0,-0.33 0.11,-0.62 0.33,-0.85 0.22,-0.24 0.52,-0.35 0.89,-0.35 0.38,0 0.68,0.11 0.9,0.35 0.23,0.23 0.34,0.52 0.34,0.85 0,0.34 -0.11,0.62 -0.34,0.85 -0.22,0.23 -0.52,0.34 -0.9,0.34 -0.37,0 -0.67,-0.11 -0.89,-0.34 -0.22,-0.23 -0.33,-0.51 -0.33,-0.85z"/>
  <polygon id="_15_14" class="fil10" points="327.8,71.55 332.7,57.89 334.54,57.89 328.51,74.01 327.07,74.01 321.02,57.89 322.85,57.89 "/>
  <path id="_16_15" class="fil10" d="M343.51 74.31c-1.05,0 -2.03,-0.2 -2.91,-0.59 -0.89,-0.39 -1.64,-0.94 -2.28,-1.64 -0.65,-0.7 -1.14,-1.53 -1.5,-2.5 -0.36,-0.96 -0.54,-2.02 -0.54,-3.17l0 -0.64c0,-1.24 0.18,-2.37 0.56,-3.38 0.37,-1 0.88,-1.86 1.51,-2.58 0.64,-0.7 1.37,-1.25 2.2,-1.64 0.83,-0.39 1.7,-0.58 2.63,-0.58 1.02,0 1.93,0.18 2.72,0.55 0.8,0.37 1.47,0.88 2.01,1.54 0.54,0.65 0.95,1.43 1.23,2.34 0.28,0.9 0.42,1.89 0.42,2.96l0 1.09 -11.51 0 0 0.34c0,0.89 0.14,1.72 0.4,2.5 0.27,0.78 0.65,1.45 1.14,2.03 0.49,0.58 1.07,1.03 1.74,1.37 0.68,0.33 1.43,0.49 2.25,0.49 0.96,0 1.8,-0.17 2.53,-0.52 0.73,-0.35 1.39,-0.9 1.99,-1.67l1.12 0.85c-0.27,0.39 -0.58,0.75 -0.93,1.11 -0.36,0.34 -0.77,0.65 -1.24,0.9 -0.46,0.26 -0.99,0.46 -1.58,0.62 -0.58,0.14 -1.24,0.22 -1.96,0.22zm-0.33 -15.2c-0.68,0 -1.3,0.13 -1.88,0.38 -0.57,0.26 -1.08,0.63 -1.52,1.11 -0.45,0.48 -0.81,1.05 -1.09,1.72 -0.29,0.67 -0.48,1.41 -0.58,2.23l9.67 0 0 -0.19c-0.01,-0.68 -0.13,-1.34 -0.32,-1.97 -0.2,-0.63 -0.49,-1.19 -0.87,-1.67 -0.39,-0.49 -0.86,-0.88 -1.43,-1.17 -0.57,-0.3 -1.22,-0.44 -1.98,-0.44z"/>
  <path id="_17_16" class="fil10" d="M362.68 69.91c0,-0.33 -0.05,-0.66 -0.16,-0.98 -0.12,-0.33 -0.33,-0.64 -0.64,-0.93 -0.32,-0.3 -0.76,-0.57 -1.32,-0.82 -0.56,-0.26 -1.28,-0.48 -2.18,-0.67 -0.89,-0.19 -1.69,-0.4 -2.39,-0.65 -0.7,-0.25 -1.29,-0.55 -1.77,-0.9 -0.49,-0.36 -0.85,-0.78 -1.1,-1.26 -0.25,-0.49 -0.37,-1.06 -0.37,-1.71 0,-0.6 0.13,-1.17 0.39,-1.7 0.27,-0.54 0.64,-1.01 1.14,-1.41 0.49,-0.39 1.09,-0.71 1.78,-0.94 0.7,-0.24 1.49,-0.35 2.37,-0.35 0.93,0 1.77,0.12 2.51,0.36 0.74,0.25 1.36,0.59 1.87,1.01 0.52,0.44 0.91,0.95 1.17,1.54 0.27,0.58 0.41,1.22 0.41,1.9l-1.79 0c0,-0.41 -0.09,-0.82 -0.28,-1.22 -0.18,-0.4 -0.45,-0.75 -0.8,-1.05 -0.36,-0.31 -0.79,-0.55 -1.31,-0.74 -0.53,-0.19 -1.12,-0.28 -1.78,-0.28 -0.7,0 -1.29,0.08 -1.79,0.25 -0.49,0.17 -0.89,0.39 -1.2,0.66 -0.31,0.27 -0.54,0.57 -0.69,0.9 -0.14,0.33 -0.21,0.67 -0.21,1 0,0.36 0.05,0.69 0.16,0.98 0.11,0.3 0.32,0.57 0.63,0.82 0.32,0.25 0.75,0.49 1.32,0.7 0.56,0.22 1.29,0.42 2.19,0.63 0.98,0.23 1.82,0.49 2.52,0.77 0.7,0.27 1.29,0.6 1.75,0.98 0.47,0.39 0.81,0.83 1.03,1.31 0.22,0.5 0.34,1.07 0.34,1.71 0,0.67 -0.14,1.28 -0.42,1.83 -0.28,0.55 -0.68,1.02 -1.19,1.41 -0.52,0.4 -1.15,0.7 -1.88,0.92 -0.74,0.22 -1.56,0.33 -2.46,0.33 -1.02,0 -1.93,-0.13 -2.71,-0.4 -0.79,-0.26 -1.45,-0.62 -1.99,-1.06 -0.53,-0.45 -0.94,-0.97 -1.21,-1.55 -0.27,-0.58 -0.41,-1.18 -0.41,-1.81l1.79 0c0.04,0.64 0.2,1.17 0.49,1.59 0.29,0.42 0.65,0.76 1.07,1.01 0.43,0.26 0.9,0.44 1.43,0.55 0.52,0.11 1.04,0.16 1.54,0.16 0.68,0 1.27,-0.08 1.79,-0.23 0.51,-0.16 0.95,-0.38 1.3,-0.65 0.35,-0.26 0.62,-0.57 0.8,-0.92 0.18,-0.35 0.26,-0.71 0.26,-1.09z"/>
 </g>
</svg>
